STARTFONT 2.1
COMMENT Copyright (C) 1990-1991 EWT Consulting
COMMENT Portions Copyright (C) 1994-1995 Cronyx Ltd.
COMMENT Modified by Serge Vakulenko, <vak@cronyx.ru>
COMMENT Encoding changed to CP1251 by Rabinovich Moisei, <moisei@cs.bgu.ac.il>,$
COMMENT This software may be used, modified, copied, distributed, and sold,
COMMENT in both source and binary form provided that the copyright
COMMENT and these terms are retained. Under no circumstances is the author
COMMENT responsible for the proper functioning of this software, nor does
COMMENT the author assume any responsibility for damages incurred with its use.
FONT -Cronyx-Helvetica-Bold-O-Normal--24-240-75-75-P-130-RAWIN-R
SIZE 24 96 96
FONTBOUNDINGBOX 45 37 -1 -8
STARTPROPERTIES 19
DEFAULT_CHAR 32
FONT_ASCENT 29
FONT_DESCENT 8
SPACING "P"
FONTNAME_REGISTRY ""
FOUNDRY "Cronyx"
FAMILY_NAME "Helvetica"
WEIGHT_NAME "Bold"
SLANT "O"
SETWIDTH_NAME "Normal"
ADD_STYLE_NAME ""
AVERAGE_WIDTH 130
CHARSET_REGISTRY "RAWIN"
CHARSET_ENCODING "R"
PIXEL_SIZE 24
POINT_SIZE 240
RESOLUTION_X 75
RESOLUTION_Y 75
COPYRIGHT "Copyright (C) 1990, 1991 EWT Consulting, Portions Copyright (C) 1994 Cronyx Ltd."
ENDPROPERTIES
CHARS 224
STARTCHAR space
ENCODING 32
SWIDTH 270 0
DWIDTH 10 0
BBX 22 37 -1 -8
BITMAP
000000
000000
000000
000000
000000
000000
000000
000000
000000
000000
000000
000000
000000
000000
000000
000000
000000
000000
000000
000000
000000
000000
000000
000000
000000
000000
000000
000000
000000
000000
000000
000000
000000
000000
000000
000000
000000
ENDCHAR
STARTCHAR exclam
ENCODING 33
SWIDTH 270 0
DWIDTH 10 0
BBX 22 37 -1 -8
BITMAP
000000
000000
000000
000000
000000
000000
0003C0
000780
000780
000780
000F00
000F00
000F00
001E00
001E00
001E00
003C00
003C00
003C00
007800
003000
003000
006000
000000
000000
000000
01E000
01E000
03C000
000000
000000
000000
000000
000000
000000
000000
000000
ENDCHAR
STARTCHAR quotedbl
ENCODING 34
SWIDTH 324 0
DWIDTH 12 0
BBX 24 37 -1 -8
BITMAP
000000
000000
000000
000000
000000
000000
000F3C
001E78
001E78
001E78
003CF0
001860
001860
0030C0
000000
000000
000000
000000
000000
000000
000000
000000
000000
000000
000000
000000
000000
000000
000000
000000
000000
000000
000000
000000
000000
000000
000000
ENDCHAR
STARTCHAR numbersign
ENCODING 35
SWIDTH 513 0
DWIDTH 19 0
BBX 31 37 -1 -8
BITMAP
00000000
00000000
00000000
00000000
00000000
00000000
000038E0
000071C0
000071C0
000071C0
0001E780
0001C700
001FFFE0
003FFFC0
00038E00
00079E00
000E3800
000E3800
000E3800
003CF000
0038E000
01FFFE00
03FFFC00
0071C000
00F3C000
01C70000
01C70000
01C70000
038E0000
00000000
00000000
00000000
00000000
00000000
00000000
00000000
00000000
ENDCHAR
STARTCHAR dollar
ENCODING 36
SWIDTH 513 0
DWIDTH 19 0
BBX 31 37 -1 -8
BITMAP
00000000
00000000
00000000
00000000
00001C00
00001C00
00007F00
0003FF80
0007FFC0
0007BBC0
001E73C0
001E73C0
001E7000
001EE000
001FE000
000FE000
000FF000
0003FC00
0001FE00
0003BE00
00039E00
00038F00
03C71E00
03C71E00
03C71E00
03CE7800
03EEF800
01FFF000
00FF8000
001C0000
001C0000
00380000
00000000
00000000
00000000
00000000
00000000
ENDCHAR
STARTCHAR percent
ENCODING 37
SWIDTH 783 0
DWIDTH 29 0
BBX 41 37 -1 -8
BITMAP
000000000000
000000000000
000000000000
000000000000
000000000000
000000000000
0000F8078000
0007FC0E0000
00071C1E0000
000E0E1C0000
001C1C780000
001C1C700000
001C1CF00000
001C71C00000
001FF3C00000
0007C3800000
00000F000000
00000E000000
00001E000000
0000387C0000
000079FF0000
000071C70000
0001E7070000
0001C7070000
0003C7070000
00070E0E0000
000F071C0000
000E07FC0000
003C03E00000
000000000000
000000000000
000000000000
000000000000
000000000000
000000000000
000000000000
000000000000
ENDCHAR
STARTCHAR ampersand
ENCODING 38
SWIDTH 621 0
DWIDTH 23 0
BBX 35 37 -1 -8
BITMAP
0000000000
0000000000
0000000000
0000000000
0000000000
0000000000
00001C0000
0000FE0000
0001FF0000
0001EF0000
00078F0000
00078F0000
00078F0000
0007BC0000
0007FC0000
0003F80000
000FE00000
001FF00000
003EF9E000
0078FBC000
00F87F8000
00F03F8000
01E03E0000
01E01E0000
01F03F0000
01F0FF0000
01FFFF8000
00FFE7C000
007F07C000
0000000000
0000000000
0000000000
0000000000
0000000000
0000000000
0000000000
0000000000
ENDCHAR
STARTCHAR quoteright
ENCODING 39
SWIDTH 216 0
DWIDTH 8 0
BBX 20 37 -1 -8
BITMAP
000000
000000
000000
000000
000000
000000
000780
000F00
000F00
000F00
001E00
000C00
000C00
001800
000000
000000
000000
000000
000000
000000
000000
000000
000000
000000
000000
000000
000000
000000
000000
000000
000000
000000
000000
000000
000000
000000
000000
ENDCHAR
STARTCHAR parenleft
ENCODING 40
SWIDTH 324 0
DWIDTH 12 0
BBX 24 37 -1 -8
BITMAP
000000
000000
000000
000000
000000
000000
00001C
000078
0000F0
0001E0
0003C0
000780
000780
000F00
001E00
001E00
003C00
003C00
003C00
007800
007800
007800
00F000
00F000
00F000
01E000
01E000
01E000
01E000
01E000
01E000
01E000
01E000
00F000
00F000
007000
000000
ENDCHAR
STARTCHAR parenright
ENCODING 41
SWIDTH 324 0
DWIDTH 12 0
BBX 24 37 -1 -8
BITMAP
000000
000000
000000
000000
000000
000000
000E00
001E00
000F00
000780
000F00
000780
000780
000F00
000780
000780
000F00
000F00
000F00
001E00
001E00
001E00
003C00
003C00
003C00
007800
007800
007800
01E000
01E000
01E000
078000
078000
0F0000
3C0000
380000
000000
ENDCHAR
STARTCHAR asterisk
ENCODING 42
SWIDTH 351 0
DWIDTH 13 0
BBX 25 37 -1 -8
BITMAP
00000000
00000000
00000000
00000000
00000000
00000000
0000E000
0001C000
000FF800
001FFC00
000FE000
0007C000
000FE000
003DE000
0018C000
00000000
00000000
00000000
00000000
00000000
00000000
00000000
00000000
00000000
00000000
00000000
00000000
00000000
00000000
00000000
00000000
00000000
00000000
00000000
00000000
00000000
00000000
ENDCHAR
STARTCHAR plus
ENCODING 43
SWIDTH 540 0
DWIDTH 20 0
BBX 32 37 -1 -8
BITMAP
00000000
00000000
00000000
00000000
00000000
00000000
00000000
00000000
00003C00
00003C00
00007800
00007800
00007800
0000F000
0000F000
0000F000
00FFFFC0
00FFFFC0
00FFFFC0
0003C000
0003C000
0003C000
00078000
00078000
00078000
000F0000
000F0000
00000000
00000000
00000000
00000000
00000000
00000000
00000000
00000000
00000000
00000000
ENDCHAR
STARTCHAR comma
ENCODING 44
SWIDTH 270 0
DWIDTH 10 0
BBX 22 37 -1 -8
BITMAP
000000
000000
000000
000000
000000
000000
000000
000000
000000
000000
000000
000000
000000
000000
000000
000000
000000
000000
000000
000000
000000
000000
000000
000000
000000
000000
01E000
01E000
03C000
00C000
018000
060000
000000
000000
000000
000000
000000
ENDCHAR
STARTCHAR minus
ENCODING 45
SWIDTH 297 0
DWIDTH 11 0
BBX 23 37 -1 -8
BITMAP
000000
000000
000000
000000
000000
000000
000000
000000
000000
000000
000000
000000
000000
000000
000000
000000
000000
000000
000000
000000
000000
01FF00
03FE00
000000
000000
000000
000000
000000
000000
000000
000000
000000
000000
000000
000000
000000
000000
ENDCHAR
STARTCHAR period
ENCODING 46
SWIDTH 270 0
DWIDTH 10 0
BBX 22 37 -1 -8
BITMAP
000000
000000
000000
000000
000000
000000
000000
000000
000000
000000
000000
000000
000000
000000
000000
000000
000000
000000
000000
000000
000000
000000
000000
000000
000000
000000
01E000
01E000
03C000
000000
000000
000000
000000
000000
000000
000000
000000
ENDCHAR
STARTCHAR slash
ENCODING 47
SWIDTH 270 0
DWIDTH 10 0
BBX 22 37 -1 -8
BITMAP
000000
000000
000000
000000
000000
000000
000078
0000F0
0000F0
0001E0
0003C0
0003C0
000780
000F00
000F00
001E00
003C00
003C00
003C00
00F000
00F000
00F000
03C000
03C000
03C000
078000
0F0000
0F0000
1E0000
000000
000000
000000
000000
000000
000000
000000
000000
ENDCHAR
STARTCHAR zero
ENCODING 48
SWIDTH 513 0
DWIDTH 19 0
BBX 31 37 -1 -8
BITMAP
00000000
00000000
00000000
00000000
00000000
00000000
00003E00
0001FF00
0003FF80
0007C7C0
000F0780
001F07C0
001E03C0
003C0780
003C0780
003C0780
00780F00
00780F00
00780F00
00F01E00
00F01E00
00F01E00
01E03C00
01F07C00
00F07800
01F1F000
00FFE000
007FC000
003E0000
00000000
00000000
00000000
00000000
00000000
00000000
00000000
00000000
ENDCHAR
STARTCHAR one
ENCODING 49
SWIDTH 459 0
DWIDTH 17 0
BBX 29 37 -1 -8
BITMAP
00000000
00000000
00000000
00000000
00000000
00000000
00001C00
00003800
00007800
0000F800
0007F000
0007F000
0007F000
0001E000
0001E000
0001E000
0003C000
0003C000
0003C000
00078000
00078000
00078000
000F0000
000F0000
000F0000
001E0000
001E0000
001E0000
003C0000
00000000
00000000
00000000
00000000
00000000
00000000
00000000
00000000
ENDCHAR
STARTCHAR two
ENCODING 50
SWIDTH 513 0
DWIDTH 19 0
BBX 31 37 -1 -8
BITMAP
00000000
00000000
00000000
00000000
00000000
00000000
00003E00
0001FF00
0003FF80
0007C7C0
000F0780
001E03C0
001E03C0
00000780
00000780
00000F00
00003E00
0000FC00
0003F800
000FC000
001F0000
003E0000
00F80000
00F00000
01E00000
03C00000
07FFFC00
07FFFC00
0FFFF800
00000000
00000000
00000000
00000000
00000000
00000000
00000000
00000000
ENDCHAR
STARTCHAR three
ENCODING 51
SWIDTH 513 0
DWIDTH 19 0
BBX 31 37 -1 -8
BITMAP
00000000
00000000
00000000
00000000
00000000
00000000
00003E00
0001FF00
0003FF80
0007C7C0
000F0780
001E03C0
001E03C0
00000780
00000F00
0000FF00
0001FC00
0001FE00
00001F00
00001E00
00000F00
00000F00
03C01E00
03C01E00
01E03C00
03E0F800
01FFF000
00FFE000
007F0000
00000000
00000000
00000000
00000000
00000000
00000000
00000000
00000000
ENDCHAR
STARTCHAR four
ENCODING 52
SWIDTH 513 0
DWIDTH 19 0
BBX 31 37 -1 -8
BITMAP
00000000
00000000
00000000
00000000
00000000
00000000
000007C0
00001F80
00001F80
00003F80
0000FF00
0000FF00
0001FF00
0007DE00
00079E00
000F9E00
003E3C00
003C3C00
007C3C00
00F07800
01F07800
01FFFF00
03FFFE00
03FFFE00
0000F000
0001E000
0001E000
0001E000
0003C000
00000000
00000000
00000000
00000000
00000000
00000000
00000000
00000000
ENDCHAR
STARTCHAR five
ENCODING 53
SWIDTH 513 0
DWIDTH 19 0
BBX 31 37 -1 -8
BITMAP
00000000
00000000
00000000
00000000
00000000
00000000
0001FFF0
0003FFE0
0003FFE0
0003C000
000F0000
000F0000
000F0000
001FFC00
003FFF00
003FFF80
007C1F00
00780F80
00000780
00000F00
00000F00
00000F00
03C01E00
03C01E00
01E03C00
03E0F800
01FFF000
00FFE000
007F0000
00000000
00000000
00000000
00000000
00000000
00000000
00000000
00000000
ENDCHAR
STARTCHAR six
ENCODING 54
SWIDTH 513 0
DWIDTH 19 0
BBX 31 37 -1 -8
BITMAP
00000000
00000000
00000000
00000000
00000000
00000000
00003F00
0001FF80
0003FFC0
0007E7C0
000F03C0
001F03C0
001E0000
003C0000
003CF800
003FFE00
007FFE00
007F3F00
007C0F00
00F81F00
00F00F00
00F00F00
01E01E00
01F03E00
00F03C00
01F9F800
00FFF000
007FE000
003F0000
00000000
00000000
00000000
00000000
00000000
00000000
00000000
00000000
ENDCHAR
STARTCHAR seven
ENCODING 55
SWIDTH 513 0
DWIDTH 19 0
BBX 31 37 -1 -8
BITMAP
00000000
00000000
00000000
00000000
00000000
00000000
000FFFF8
001FFFF0
001FFFF0
000001F0
000007C0
00000F80
00000F00
00003E00
00003C00
00007C00
0000F000
0001F000
0001E000
0003C000
0007C000
00078000
000F0000
001F0000
001E0000
003C0000
003C0000
003C0000
00780000
00000000
00000000
00000000
00000000
00000000
00000000
00000000
00000000
ENDCHAR
STARTCHAR eight
ENCODING 56
SWIDTH 513 0
DWIDTH 19 0
BBX 31 37 -1 -8
BITMAP
00000000
00000000
00000000
00000000
00000000
00000000
00003E00
0001FF00
0003FF80
0007C7C0
000F0780
001E03C0
001E03C0
003C0780
001E0F00
001FFF00
001FFC00
003FFE00
007C1F00
00F01E00
01E00F00
01E00F00
03C01E00
03C01E00
01E03C00
03E0F800
01FFF000
00FFE000
007F0000
00000000
00000000
00000000
00000000
00000000
00000000
00000000
00000000
ENDCHAR
STARTCHAR nine
ENCODING 57
SWIDTH 513 0
DWIDTH 19 0
BBX 31 37 -1 -8
BITMAP
00000000
00000000
00000000
00000000
00000000
00000000
00007E00
0003FF00
0007FF80
000FCFC0
001E0780
003E07C0
003C03C0
00780780
00780780
007C0F80
00781F00
007E7F00
003FFF00
003FFE00
000F9E00
00001E00
00003C00
01E07C00
01E07800
01F3F000
01FFE000
00FFC000
007E0000
00000000
00000000
00000000
00000000
00000000
00000000
00000000
00000000
ENDCHAR
STARTCHAR colon
ENCODING 58
SWIDTH 270 0
DWIDTH 10 0
BBX 22 37 -1 -8
BITMAP
000000
000000
000000
000000
000000
000000
000000
000000
000000
000000
000000
000000
000000
001E00
001E00
001E00
000000
000000
000000
000000
000000
000000
000000
000000
000000
000000
01E000
01E000
03C000
000000
000000
000000
000000
000000
000000
000000
000000
ENDCHAR
STARTCHAR semicolon
ENCODING 59
SWIDTH 270 0
DWIDTH 10 0
BBX 22 37 -1 -8
BITMAP
000000
000000
000000
000000
000000
000000
000000
000000
000000
000000
000000
000000
000000
001E00
001E00
001E00
000000
000000
000000
000000
000000
000000
000000
000000
000000
000000
01E000
01E000
03C000
00C000
018000
060000
000000
000000
000000
000000
000000
ENDCHAR
STARTCHAR less
ENCODING 60
SWIDTH 540 0
DWIDTH 20 0
BBX 32 37 -1 -8
BITMAP
00000000
00000000
00000000
00000000
00000000
00000000
00000000
00000000
00000000
00000000
000000E0
000003E0
00000FE0
00007F00
0001FC00
0007F000
003F8000
00FE0000
00FE0000
007F0000
001FC000
0007F000
0003F800
0000FE00
00003E00
00001C00
00000000
00000000
00000000
00000000
00000000
00000000
00000000
00000000
00000000
00000000
00000000
ENDCHAR
STARTCHAR equal
ENCODING 61
SWIDTH 540 0
DWIDTH 20 0
BBX 32 37 -1 -8
BITMAP
00000000
00000000
00000000
00000000
00000000
00000000
00000000
00000000
00000000
00000000
00000000
00000000
00000000
007FFFE0
007FFFE0
007FFFE0
00000000
00000000
00000000
01FFFF80
01FFFF80
01FFFF80
00000000
00000000
00000000
00000000
00000000
00000000
00000000
00000000
00000000
00000000
00000000
00000000
00000000
00000000
00000000
ENDCHAR
STARTCHAR greater
ENCODING 62
SWIDTH 540 0
DWIDTH 20 0
BBX 32 37 -1 -8
BITMAP
00000000
00000000
00000000
00000000
00000000
00000000
00000000
00000000
00000000
00000000
001C0000
001F0000
001FC000
000FE000
0003F800
0000FE00
00007F00
00001FC0
00001FC0
0000FE00
0003F800
000FE000
007F0000
01FC0000
01F00000
03800000
00000000
00000000
00000000
00000000
00000000
00000000
00000000
00000000
00000000
00000000
00000000
ENDCHAR
STARTCHAR question
ENCODING 63
SWIDTH 486 0
DWIDTH 18 0
BBX 30 37 -1 -8
BITMAP
00000000
00000000
00000000
00000000
00000000
00000000
00007E00
0003FF00
0007FF80
000F87C0
001E0780
003C03C0
003C03C0
00000780
00000780
00000F00
00003E00
00007C00
0000F800
0003E000
0003C000
00078000
000F0000
00000000
00000000
00000000
001E0000
001E0000
003C0000
00000000
00000000
00000000
00000000
00000000
00000000
00000000
00000000
ENDCHAR
STARTCHAR at
ENCODING 64
SWIDTH 837 0
DWIDTH 31 0
BBX 43 37 -1 -8
BITMAP
000000000000
000000000000
000000000000
000000000000
000000000000
000000000000
000001FE0000
00001FFF8000
00007E07E000
0000F000F000
0003C000F000
000780007800
000F01F03800
001C0FFE3800
00381E3E3800
0038381C1C00
007070383800
00E0E0383800
00E0E0703800
01C380E07000
01C380E0E000
01C381C0E000
01C707838000
01C38FC78000
01C1FFFF0000
01C1F9F80000
01E000000000
00F000000000
00F800000000
007E03C00000
001FFF800000
0007FC000000
000000000000
000000000000
000000000000
000000000000
000000000000
ENDCHAR
STARTCHAR A
ENCODING 65
SWIDTH 621 0
DWIDTH 23 0
BBX 35 37 -1 -8
BITMAP
0000000000
0000000000
0000000000
0000000000
0000000000
0000000000
00000FC000
00001F8000
00003FC000
00003FC000
00007F8000
0000FFC000
0000F3C000
0001E78000
0003E7C000
0003C3C000
000F87C000
000F03C000
000F03C000
003E07C000
003C03C000
003FFFC000
00FFFFC000
00FFFFC000
01F003E000
03C003C000
03C003C000
07C003E000
0F0003C000
0000000000
0000000000
0000000000
0000000000
0000000000
0000000000
0000000000
0000000000
ENDCHAR
STARTCHAR B
ENCODING 66
SWIDTH 594 0
DWIDTH 22 0
BBX 34 37 -1 -8
BITMAP
0000000000
0000000000
0000000000
0000000000
0000000000
0000000000
0003FFE000
0007FFF000
0007FFF800
0007807800
000F007800
000F007800
000F007800
001E00F000
001E01E000
001FFFE000
003FFF8000
003FFFC000
003C03E000
007803C000
007801E000
007801E000
00F003C000
00F003C000
00F007C000
01E01F0000
01FFFF0000
01FFFE0000
03FFF00000
0000000000
0000000000
0000000000
0000000000
0000000000
0000000000
0000000000
0000000000
ENDCHAR
STARTCHAR C
ENCODING 67
SWIDTH 648 0
DWIDTH 24 0
BBX 36 37 -1 -8
BITMAP
0000000000
0000000000
0000000000
0000000000
0000000000
0000000000
000007F000
00007FFC00
0000FFFE00
0001F83F00
0007C01F00
000F800F80
000F000780
001E000F00
003C000000
003C000000
0078000000
0078000000
0078000000
00F0000000
00F0000000
0078003C00
00F0007800
00F800F800
007C01F000
007E0FC000
003FFF8000
001FFF0000
0007F00000
0000000000
0000000000
0000000000
0000000000
0000000000
0000000000
0000000000
0000000000
ENDCHAR
STARTCHAR D
ENCODING 68
SWIDTH 648 0
DWIDTH 24 0
BBX 36 37 -1 -8
BITMAP
0000000000
0000000000
0000000000
0000000000
0000000000
0000000000
0003FFC000
0007FFF000
0007FFF800
000780FC00
000F007C00
000F003E00
000F001E00
001E003C00
001E001E00
001E001E00
003C003C00
003C003C00
003C003C00
0078007800
0078007800
007800F000
00F001E000
00F003E000
00F007C000
01E03F0000
01FFFE0000
01FFFC0000
03FFC00000
0000000000
0000000000
0000000000
0000000000
0000000000
0000000000
0000000000
0000000000
ENDCHAR
STARTCHAR E
ENCODING 69
SWIDTH 594 0
DWIDTH 22 0
BBX 34 37 -1 -8
BITMAP
0000000000
0000000000
0000000000
0000000000
0000000000
0000000000
0003FFFF00
0007FFFE00
0007FFFE00
0007800000
000F000000
000F000000
000F000000
001E000000
001E000000
001FFFE000
003FFFC000
003FFFC000
003C000000
0078000000
0078000000
0078000000
00F0000000
00F0000000
00F0000000
01E0000000
01FFFF8000
01FFFF8000
03FFFF0000
0000000000
0000000000
0000000000
0000000000
0000000000
0000000000
0000000000
0000000000
ENDCHAR
STARTCHAR F
ENCODING 70
SWIDTH 567 0
DWIDTH 21 0
BBX 33 37 -1 -8
BITMAP
0000000000
0000000000
0000000000
0000000000
0000000000
0000000000
0003FFFF00
0007FFFE00
0007FFFE00
0007800000
000F000000
000F000000
000F000000
001E000000
001E000000
001FFFC000
003FFF8000
003FFF8000
003C000000
0078000000
0078000000
0078000000
00F0000000
00F0000000
00F0000000
01E0000000
01E0000000
01E0000000
03C0000000
0000000000
0000000000
0000000000
0000000000
0000000000
0000000000
0000000000
0000000000
ENDCHAR
STARTCHAR G
ENCODING 71
SWIDTH 702 0
DWIDTH 26 0
BBX 38 37 -1 -8
BITMAP
0000000000
0000000000
0000000000
0000000000
0000000000
0000000000
000007F000
00007FFC00
0000FFFE00
0001F83F00
0007C01F00
000F800F80
000F000780
001E000F00
003C000000
003C000000
0078000000
007807FE00
007807FE00
00F00FFC00
00F0003C00
0078003C00
00F000F800
00F800F800
007C01F800
007E0FF000
003FFFF000
001FFEF000
0007F1E000
0000000000
0000000000
0000000000
0000000000
0000000000
0000000000
0000000000
0000000000
ENDCHAR
STARTCHAR H
ENCODING 72
SWIDTH 648 0
DWIDTH 24 0
BBX 36 37 -1 -8
BITMAP
0000000000
0000000000
0000000000
0000000000
0000000000
0000000000
0003C00780
0007800F00
0007800F00
0007800F00
000F001E00
000F001E00
000F001E00
001E003C00
001E003C00
001FFFFC00
003FFFF800
003FFFF800
003C007800
007800F000
007800F000
007800F000
00F001E000
00F001E000
00F001E000
01E003C000
01E003C000
01E003C000
03C0078000
0000000000
0000000000
0000000000
0000000000
0000000000
0000000000
0000000000
0000000000
ENDCHAR
STARTCHAR I
ENCODING 73
SWIDTH 243 0
DWIDTH 9 0
BBX 21 37 -1 -8
BITMAP
000000
000000
000000
000000
000000
000000
0003C0
000780
000780
000780
000F00
000F00
000F00
001E00
001E00
001E00
003C00
003C00
003C00
007800
007800
007800
00F000
00F000
00F000
01E000
01E000
01E000
03C000
000000
000000
000000
000000
000000
000000
000000
000000
ENDCHAR
STARTCHAR J
ENCODING 74
SWIDTH 459 0
DWIDTH 17 0
BBX 29 37 -1 -8
BITMAP
00000000
00000000
00000000
00000000
00000000
00000000
000003C0
00000780
00000780
00000780
00000F00
00000F00
00000F00
00001E00
00001E00
00001E00
00003C00
00003C00
00003C00
00007800
01E07800
01E07800
03C0F000
03C0F000
03E1F000
03E7C000
03FFC000
01FF8000
00FC0000
00000000
00000000
00000000
00000000
00000000
00000000
00000000
00000000
ENDCHAR
STARTCHAR K
ENCODING 75
SWIDTH 594 0
DWIDTH 22 0
BBX 34 37 -1 -8
BITMAP
0000000000
0000000000
0000000000
0000000000
0000000000
0000000000
0007803E00
000F00F800
000F01F000
000F03E000
001E0F8000
001E1F0000
001E3E0000
003CF80000
003DF00000
003FE00000
007FC00000
007FE00000
007FF00000
00F9F00000
00F0F80000
00F07C0000
01E07C0000
01E03E0000
01E01F0000
03C01F0000
03C00F8000
03C007C000
0780078000
0000000000
0000000000
0000000000
0000000000
0000000000
0000000000
0000000000
0000000000
ENDCHAR
STARTCHAR L
ENCODING 76
SWIDTH 513 0
DWIDTH 19 0
BBX 31 37 -1 -8
BITMAP
00000000
00000000
00000000
00000000
00000000
00000000
0003C000
00078000
00078000
00078000
000F0000
000F0000
000F0000
001E0000
001E0000
001E0000
003C0000
003C0000
003C0000
00780000
00780000
00780000
00F00000
00F00000
00F00000
01E00000
01FFFE00
01FFFE00
03FFFC00
00000000
00000000
00000000
00000000
00000000
00000000
00000000
00000000
ENDCHAR
STARTCHAR M
ENCODING 77
SWIDTH 729 0
DWIDTH 27 0
BBX 39 37 -1 -8
BITMAP
0000000000
0000000000
0000000000
0000000000
0000000000
0000000000
0003E001F0
0007E007E0
0007E007E0
0007E007E0
000FE01FC0
000FE01FC0
000FE01FC0
001FE07F80
001FE07F80
001FE07F80
003FE1FF00
003DE1EF00
003DE1EF00
007BE7DE00
0079E79E00
0079E79E00
00F3FF3C00
00F1FE3C00
00F1FE3C00
01E3FC7800
01E1F87800
01E1F87800
03C3F0F000
0000000000
0000000000
0000000000
0000000000
0000000000
0000000000
0000000000
0000000000
ENDCHAR
STARTCHAR N
ENCODING 78
SWIDTH 675 0
DWIDTH 25 0
BBX 37 37 -1 -8
BITMAP
0000000000
0000000000
0000000000
0000000000
0000000000
0000000000
0003E003C0
0007E00780
0007E00780
0007F00780
000FF00F00
000FF00F00
000FF80F00
001EF81E00
001E781E00
001E7C1E00
003C7C3C00
003C3C3C00
003C3E3C00
00783E7800
00781E7800
00781F7800
00F01FF000
00F00FF000
00F00FF000
01E00FE000
01E007E000
01E007E000
03C007C000
0000000000
0000000000
0000000000
0000000000
0000000000
0000000000
0000000000
0000000000
ENDCHAR
STARTCHAR O
ENCODING 79
SWIDTH 702 0
DWIDTH 26 0
BBX 38 37 -1 -8
BITMAP
0000000000
0000000000
0000000000
0000000000
0000000000
0000000000
000007F000
00007FFC00
0000FFFE00
0001F83F00
0007C01F00
000F800F80
000F000780
001E000F00
003C000780
003C000780
0078000F00
0078000F00
0078000F00
00F0001E00
00F0001E00
0078003C00
00F0007800
00F800F800
007C01F000
007E0FC000
003FFF8000
001FFF0000
0007F00000
0000000000
0000000000
0000000000
0000000000
0000000000
0000000000
0000000000
0000000000
ENDCHAR
STARTCHAR P
ENCODING 80
SWIDTH 594 0
DWIDTH 22 0
BBX 34 37 -1 -8
BITMAP
0000000000
0000000000
0000000000
0000000000
0000000000
0000000000
0003FFF000
0007FFF800
0007FFFC00
0007807C00
000F007C00
000F003C00
000F003C00
001E007800
001E007800
001E00F800
003C03E000
003FFFE000
003FFFC000
007FFE0000
0078000000
0078000000
00F0000000
00F0000000
00F0000000
01E0000000
01E0000000
01E0000000
03C0000000
0000000000
0000000000
0000000000
0000000000
0000000000
0000000000
0000000000
0000000000
ENDCHAR
STARTCHAR Q
ENCODING 81
SWIDTH 702 0
DWIDTH 26 0
BBX 38 37 -1 -8
BITMAP
0000000000
0000000000
0000000000
0000000000
0000000000
0000000000
000007F000
00007FFC00
0000FFFE00
0001F83F00
0007C01F00
000F800F80
000F000780
001E000F00
003C000780
003C000780
0078000F00
0078000F00
0078000F00
00F0001E00
00F0039E00
007807FC00
00F007F800
00F803F800
007C01F000
007E0FF000
003FFFF800
001FFF7800
0007F06000
0000000000
0000000000
0000000000
0000000000
0000000000
0000000000
0000000000
0000000000
ENDCHAR
STARTCHAR R
ENCODING 82
SWIDTH 621 0
DWIDTH 23 0
BBX 35 37 -1 -8
BITMAP
0000000000
0000000000
0000000000
0000000000
0000000000
0000000000
0003FFF000
0007FFF800
0007FFFC00
0007803C00
000F003C00
000F003C00
000F003C00
001E007800
001E00F800
001E01F000
003FFFE000
003FFFC000
003FFFE000
007807C000
007803E000
007801E000
00F003C000
00F003C000
00F003C000
01E0078000
01E0078000
01E007C000
03C0078000
0000000000
0000000000
0000000000
0000000000
0000000000
0000000000
0000000000
0000000000
ENDCHAR
STARTCHAR S
ENCODING 83
SWIDTH 594 0
DWIDTH 22 0
BBX 34 37 -1 -8
BITMAP
0000000000
0000000000
0000000000
0000000000
0000000000
0000000000
00007FE000
0003FFF000
0007FFF800
0007C0F800
001F00F800
001E007800
001E000000
003E000000
001F000000
001FF00000
001FFF0000
0007FFC000
00007FE000
000007C000
000003E000
000001E000
03C003C000
03E003C000
01E007C000
03F01F0000
01FFFF0000
00FFFE0000
007FF00000
0000000000
0000000000
0000000000
0000000000
0000000000
0000000000
0000000000
0000000000
ENDCHAR
STARTCHAR T
ENCODING 84
SWIDTH 567 0
DWIDTH 21 0
BBX 33 37 -1 -8
BITMAP
0000000000
0000000000
0000000000
0000000000
0000000000
0000000000
000FFFFF00
001FFFFE00
001FFFFE00
00001E0000
00003C0000
00003C0000
00003C0000
0000780000
0000780000
0000780000
0000F00000
0000F00000
0000F00000
0001E00000
0001E00000
0001E00000
0003C00000
0003C00000
0003C00000
0007800000
0007800000
0007800000
000F000000
0000000000
0000000000
0000000000
0000000000
0000000000
0000000000
0000000000
0000000000
ENDCHAR
STARTCHAR U
ENCODING 85
SWIDTH 648 0
DWIDTH 24 0
BBX 36 37 -1 -8
BITMAP
0000000000
0000000000
0000000000
0000000000
0000000000
0000000000
0003C00780
0007800F00
0007800F00
0007800F00
000F001E00
000F001E00
000F001E00
001E003C00
001E003C00
001E003C00
003C007800
003C007800
003C007800
007800F000
007800F000
007800F000
00F001E000
00F803E000
007803C000
00FC1F8000
007FFF0000
003FFE0000
001FF00000
0000000000
0000000000
0000000000
0000000000
0000000000
0000000000
0000000000
0000000000
ENDCHAR
STARTCHAR V
ENCODING 86
SWIDTH 621 0
DWIDTH 23 0
BBX 35 37 -1 -8
BITMAP
0000000000
0000000000
0000000000
0000000000
0000000000
0000000000
000F0003C0
001F000F80
000F000F00
000F000F00
001F003E00
000F003C00
000F807C00
000F00F000
000F00F000
000F81F000
000F03C000
000F03C000
000F87C000
000F0F0000
000F9F0000
00079E0000
000F3C0000
000FFC0000
0007F80000
000FF00000
000FF00000
0007E00000
000FC00000
0000000000
0000000000
0000000000
0000000000
0000000000
0000000000
0000000000
0000000000
ENDCHAR
STARTCHAR W
ENCODING 87
SWIDTH 864 0
DWIDTH 32 0
BBX 44 37 -1 -8
BITMAP
000000000000
000000000000
000000000000
000000000000
000000000000
000000000000
000F007C01E0
001E00F803C0
001E00F803C0
001F01FC07C0
001E03F80F00
001E03F80F00
001F07FC1F00
001E0F783C00
001E0F783C00
001F1F7C7C00
001E3C78F000
001E3C78F000
001F7C7DF000
001EF07BC000
001EF07BC000
001FF07FC000
001FC07F0000
001FC07F0000
001FC07F0000
001F007C0000
001F007C0000
001F007C0000
003E00F80000
000000000000
000000000000
000000000000
000000000000
000000000000
000000000000
000000000000
000000000000
ENDCHAR
STARTCHAR X
ENCODING 88
SWIDTH 594 0
DWIDTH 22 0
BBX 34 37 -1 -8
BITMAP
0000000000
0000000000
0000000000
0000000000
0000000000
0000000000
0007800F00
000F803E00
0007803C00
0007C07C00
0007C1F000
0003E3E000
0001E3C000
0003EF8000
0001FF0000
0000FE0000
0000F80000
0000F80000
0001FC0000
0007FC0000
0007BC0000
000FBE0000
003E3E0000
007C1F0000
00780F0000
01F01F0000
03E00F8000
07C007C000
0F00078000
0000000000
0000000000
0000000000
0000000000
0000000000
0000000000
0000000000
0000000000
ENDCHAR
STARTCHAR Y
ENCODING 89
SWIDTH 621 0
DWIDTH 23 0
BBX 35 37 -1 -8
BITMAP
0000000000
0000000000
0000000000
0000000000
0000000000
0000000000
000F0003C0
001F000F80
000F801F00
0007C03E00
0007807800
0007C0F800
0003E1F000
0003E7C000
0001E78000
0001FF8000
0001FE0000
0000FC0000
0000780000
0000F00000
0000F00000
0000F00000
0001E00000
0001E00000
0001E00000
0003C00000
0003C00000
0003C00000
0007800000
0000000000
0000000000
0000000000
0000000000
0000000000
0000000000
0000000000
0000000000
ENDCHAR
STARTCHAR Z
ENCODING 90
SWIDTH 567 0
DWIDTH 21 0
BBX 33 37 -1 -8
BITMAP
0000000000
0000000000
0000000000
0000000000
0000000000
0000000000
0007FFFE00
000FFFFC00
000FFFFC00
0000007C00
000001F000
000003E000
000007C000
00001F0000
00003E0000
00003C0000
0000F80000
0001F00000
0003E00000
000F800000
000F000000
001F000000
007C000000
00F8000000
01F0000000
07C0000000
07FFFF8000
07FFFF8000
0FFFFF0000
0000000000
0000000000
0000000000
0000000000
0000000000
0000000000
0000000000
0000000000
ENDCHAR
STARTCHAR bracketleft
ENCODING 91
SWIDTH 270 0
DWIDTH 10 0
BBX 22 37 -1 -8
BITMAP
000000
000000
000000
000000
000000
000000
0007F0
000FE0
000FE0
000F00
001E00
001E00
001E00
003C00
003C00
003C00
007800
007800
007800
00F000
00F000
00F000
01E000
01E000
01E000
03C000
03C000
03C000
078000
078000
078000
0F0000
0F0000
0FE000
1FC000
1FC000
000000
ENDCHAR
STARTCHAR backslash
ENCODING 92
SWIDTH 270 0
DWIDTH 10 0
BBX 22 37 -1 -8
BITMAP
000000
000000
000000
000000
000000
000000
001E00
003C00
003C00
001E00
003C00
003C00
003C00
003C00
003C00
003C00
003C00
003C00
003C00
007800
003C00
003C00
007800
003C00
003C00
007800
003C00
003C00
007800
000000
000000
000000
000000
000000
000000
000000
000000
ENDCHAR
STARTCHAR bracketright
ENCODING 93
SWIDTH 270 0
DWIDTH 10 0
BBX 22 37 -1 -8
BITMAP
000000
000000
000000
000000
000000
000000
000FE0
001FC0
001FC0
0003C0
000780
000780
000780
000F00
000F00
000F00
001E00
001E00
001E00
003C00
003C00
003C00
007800
007800
007800
00F000
00F000
00F000
01E000
01E000
01E000
03C000
03C000
1FC000
3F8000
3F8000
000000
ENDCHAR
STARTCHAR asciicircum
ENCODING 94
SWIDTH 432 0
DWIDTH 16 0
BBX 28 37 -1 -8
BITMAP
00000000
00000000
00000000
00000000
00000000
00000000
0000FC00
0003FC00
0007FE00
000F0F00
00380700
00000000
00000000
00000000
00000000
00000000
00000000
00000000
00000000
00000000
00000000
00000000
00000000
00000000
00000000
00000000
00000000
00000000
00000000
00000000
00000000
00000000
00000000
00000000
00000000
00000000
00000000
ENDCHAR
STARTCHAR underscore
ENCODING 95
SWIDTH 513 0
DWIDTH 19 0
BBX 31 37 -1 -8
BITMAP
00000000
00000000
00000000
00000000
00000000
00000000
00000000
00000000
00000000
00000000
00000000
00000000
00000000
00000000
00000000
00000000
00000000
00000000
00000000
00000000
00000000
00000000
00000000
00000000
00000000
00000000
00000000
00000000
00000000
00000000
1FFFFC00
3FFFF800
00000000
00000000
00000000
00000000
00000000
ENDCHAR
STARTCHAR quoteleft
ENCODING 96
SWIDTH 324 0
DWIDTH 12 0
BBX 24 37 -1 -8
BITMAP
000000
000000
000000
000000
000000
000000
0007E0
0003E0
0000F0
000030
000000
000000
000000
000000
000000
000000
000000
000000
000000
000000
000000
000000
000000
000000
000000
000000
000000
000000
000000
000000
000000
000000
000000
000000
000000
000000
000000
ENDCHAR
STARTCHAR a
ENCODING 97
SWIDTH 513 0
DWIDTH 19 0
BBX 31 37 -1 -8
BITMAP
00000000
00000000
00000000
00000000
00000000
00000000
00000000
00000000
00000000
00000000
00000000
00000000
00000000
0007FC00
001FFF00
001E0F00
00780F00
00000F00
00001F00
001FFE00
007FFE00
00F81E00
01E03C00
03C03C00
03C03C00
0780F800
03C1FC00
03FFFE00
01FE3C00
00000000
00000000
00000000
00000000
00000000
00000000
00000000
00000000
ENDCHAR
STARTCHAR b
ENCODING 98
SWIDTH 513 0
DWIDTH 19 0
BBX 31 37 -1 -8
BITMAP
00000000
00000000
00000000
00000000
00000000
00000000
00078000
000F0000
000F0000
000F0000
001E0000
001E0000
001E0000
003DFC00
003FFF00
003F9F80
007C0F00
007C0F80
00780780
00F00F00
00F00F00
00F00F00
01E01E00
01E01E00
01F03E00
03E07800
03F9F800
03FFF000
07BF8000
00000000
00000000
00000000
00000000
00000000
00000000
00000000
00000000
ENDCHAR
STARTCHAR c
ENCODING 99
SWIDTH 459 0
DWIDTH 17 0
BBX 29 37 -1 -8
BITMAP
00000000
00000000
00000000
00000000
00000000
00000000
00000000
00000000
00000000
00000000
00000000
00000000
00000000
0007FC00
001FFF00
003F1F80
00780F00
00F80F00
00F00000
01E00000
01E00000
01E00000
03C00000
03C00000
03E03C00
03C07800
03F1F800
01FFF000
00FF8000
00000000
00000000
00000000
00000000
00000000
00000000
00000000
00000000
ENDCHAR
STARTCHAR d
ENCODING 100
SWIDTH 513 0
DWIDTH 19 0
BBX 31 37 -1 -8
BITMAP
00000000
00000000
00000000
00000000
00000000
00000000
000000F0
000001E0
000001E0
000001E0
000003C0
000003C0
000003C0
0007F780
001FFF80
003F3F80
00781F00
00F81F00
00F00F00
01E01E00
01E01E00
01E01E00
03C03C00
03C03C00
03E07C00
03C0F800
03F3F800
01FFF800
00FEF000
00000000
00000000
00000000
00000000
00000000
00000000
00000000
00000000
ENDCHAR
STARTCHAR e
ENCODING 101
SWIDTH 486 0
DWIDTH 18 0
BBX 30 37 -1 -8
BITMAP
00000000
00000000
00000000
00000000
00000000
00000000
00000000
00000000
00000000
00000000
00000000
00000000
00000000
0007F800
001FFE00
003F3F00
00781E00
00F81F00
00F00F00
01FFFE00
01FFFE00
01E00000
03C00000
03C00000
03E07C00
03C0F000
03F3F000
01FFE000
00FF0000
00000000
00000000
00000000
00000000
00000000
00000000
00000000
00000000
ENDCHAR
STARTCHAR f
ENCODING 102
SWIDTH 270 0
DWIDTH 10 0
BBX 22 37 -1 -8
BITMAP
000000
000000
000000
000000
000000
000000
000078
0003F0
0003C0
000780
000F00
000F00
000F00
00FFC0
00FFC0
001E00
003C00
003C00
003C00
007800
007800
007800
00F000
00F000
00F000
01E000
01E000
01E000
03C000
000000
000000
000000
000000
000000
000000
000000
000000
ENDCHAR
STARTCHAR g
ENCODING 103
SWIDTH 513 0
DWIDTH 19 0
BBX 31 37 -1 -8
BITMAP
00000000
00000000
00000000
00000000
00000000
00000000
00000000
00000000
00000000
00000000
00000000
00000000
00000000
0007F780
001FFF80
003F3F80
00781F00
00F81F00
00F00F00
01E01E00
01E01E00
01E01E00
03C03C00
03C03C00
03E07C00
03C0F800
03F3F800
01FFF800
00FEF000
0000F000
0000F000
0F03C000
0F03C000
07CF8000
07FE0000
01F80000
00000000
ENDCHAR
STARTCHAR h
ENCODING 104
SWIDTH 513 0
DWIDTH 19 0
BBX 31 37 -1 -8
BITMAP
00000000
00000000
00000000
00000000
00000000
00000000
00078000
000F0000
000F0000
000F0000
001E0000
001E0000
001E0000
003DFC00
003FFF00
003F1F00
007C1F00
00780F00
00780F00
00F01E00
00F01E00
00F01E00
01E03C00
01E03C00
01E03C00
03C07800
03C07800
03C07800
0780F000
00000000
00000000
00000000
00000000
00000000
00000000
00000000
00000000
ENDCHAR
STARTCHAR i
ENCODING 105
SWIDTH 216 0
DWIDTH 8 0
BBX 20 37 -1 -8
BITMAP
000000
000000
000000
000000
000000
000000
000780
000F00
000F00
000000
000000
000000
000000
003C00
003C00
003C00
007800
007800
007800
00F000
00F000
00F000
01E000
01E000
01E000
03C000
03C000
03C000
078000
000000
000000
000000
000000
000000
000000
000000
000000
ENDCHAR
STARTCHAR j
ENCODING 106
SWIDTH 216 0
DWIDTH 8 0
BBX 20 37 -1 -8
BITMAP
000000
000000
000000
000000
000000
000000
000780
000F00
000F00
000000
000000
000000
000000
003C00
003C00
003C00
007800
007800
007800
00F000
00F000
00F000
01E000
01E000
01E000
03C000
03C000
03C000
078000
078000
078000
0F0000
0F0000
1F0000
7C0000
780000
000000
ENDCHAR
STARTCHAR k
ENCODING 107
SWIDTH 459 0
DWIDTH 17 0
BBX 29 37 -1 -8
BITMAP
00000000
00000000
00000000
00000000
00000000
00000000
00078000
000F0000
000F0000
000F0000
001E0000
001E0000
001E0000
003C1E00
003C3C00
003C7800
0079E000
007BC000
007F8000
00FF0000
00FF8000
00FFC000
01E7C000
01E3C000
01E3E000
03C3E000
03C1F000
03C0F000
0781F000
00000000
00000000
00000000
00000000
00000000
00000000
00000000
00000000
ENDCHAR
STARTCHAR l
ENCODING 108
SWIDTH 216 0
DWIDTH 8 0
BBX 20 37 -1 -8
BITMAP
000000
000000
000000
000000
000000
000000
000780
000F00
000F00
000F00
001E00
001E00
001E00
003C00
003C00
003C00
007800
007800
007800
00F000
00F000
00F000
01E000
01E000
01E000
03C000
03C000
03C000
078000
000000
000000
000000
000000
000000
000000
000000
000000
ENDCHAR
STARTCHAR m
ENCODING 109
SWIDTH 756 0
DWIDTH 28 0
BBX 40 37 -1 -8
BITMAP
0000000000
0000000000
0000000000
0000000000
0000000000
0000000000
0000000000
0000000000
0000000000
0000000000
0000000000
0000000000
0000000000
003DF87E00
003FFEFF80
003F3FCF80
007C3F0F80
00781E0780
00781E0780
00F03C0F00
00F03C0F00
00F03C0F00
01E0781E00
01E0781E00
01E0781E00
03C0F03C00
03C0F03C00
03C0F03C00
0781E07800
0000000000
0000000000
0000000000
0000000000
0000000000
0000000000
0000000000
0000000000
ENDCHAR
STARTCHAR n
ENCODING 110
SWIDTH 513 0
DWIDTH 19 0
BBX 31 37 -1 -8
BITMAP
00000000
00000000
00000000
00000000
00000000
00000000
00000000
00000000
00000000
00000000
00000000
00000000
00000000
003DFC00
003FFF00
003F1F00
007C1F00
00780F00
00780F00
00F01E00
00F01E00
00F01E00
01E03C00
01E03C00
01E03C00
03C07800
03C07800
03C07800
0780F000
00000000
00000000
00000000
00000000
00000000
00000000
00000000
00000000
ENDCHAR
STARTCHAR o
ENCODING 111
SWIDTH 513 0
DWIDTH 19 0
BBX 31 37 -1 -8
BITMAP
00000000
00000000
00000000
00000000
00000000
00000000
00000000
00000000
00000000
00000000
00000000
00000000
00000000
0007FC00
001FFF00
003F1F80
00780F00
00F80F80
00F00780
01E00F00
01E00F00
01E00F00
03C01E00
03C01E00
03E03E00
03C07800
03F1F800
01FFF000
00FF8000
00000000
00000000
00000000
00000000
00000000
00000000
00000000
00000000
ENDCHAR
STARTCHAR p
ENCODING 112
SWIDTH 513 0
DWIDTH 19 0
BBX 31 37 -1 -8
BITMAP
00000000
00000000
00000000
00000000
00000000
00000000
00000000
00000000
00000000
00000000
00000000
00000000
00000000
003DFC00
003FFF00
003F9F80
007C0F00
007C0F80
00780780
00F00F00
00F00F00
00F00F00
01E01E00
01E01E00
01F03E00
03E07800
03F9F800
03FFF000
07BF8000
07800000
07800000
0F000000
0F000000
0F000000
1E000000
00000000
00000000
ENDCHAR
STARTCHAR q
ENCODING 113
SWIDTH 513 0
DWIDTH 19 0
BBX 31 37 -1 -8
BITMAP
00000000
00000000
00000000
00000000
00000000
00000000
00000000
00000000
00000000
00000000
00000000
00000000
00000000
0007F780
001FFF80
003F3F80
00781F00
00F81F00
00F00F00
01E01E00
01E01E00
01E01E00
03C03C00
03C03C00
03E07C00
03C0F800
03F3F800
01FFF800
00FEF000
0000F000
0000F000
0001E000
0001E000
0001E000
0003C000
00000000
00000000
ENDCHAR
STARTCHAR r
ENCODING 114
SWIDTH 324 0
DWIDTH 12 0
BBX 24 37 -1 -8
BITMAP
000000
000000
000000
000000
000000
000000
000000
000000
000000
000000
000000
000000
000000
003DF0
003FF0
003F00
007C00
007800
007800
00F000
00F000
00F000
01E000
01E000
01E000
03C000
03C000
03C000
078000
000000
000000
000000
000000
000000
000000
000000
000000
ENDCHAR
STARTCHAR s
ENCODING 115
SWIDTH 459 0
DWIDTH 17 0
BBX 29 37 -1 -8
BITMAP
00000000
00000000
00000000
00000000
00000000
00000000
00000000
00000000
00000000
00000000
00000000
00000000
00000000
000FF000
003FFC00
003C3C00
00F03C00
00F00000
00F00000
00F00000
00FFE000
003FF800
0000F000
00007800
03C07800
0780F000
03C1E000
03FFE000
01FF0000
00000000
00000000
00000000
00000000
00000000
00000000
00000000
00000000
ENDCHAR
STARTCHAR t
ENCODING 116
SWIDTH 270 0
DWIDTH 10 0
BBX 22 37 -1 -8
BITMAP
000000
000000
000000
000000
000000
000000
000000
000780
000780
000780
000F00
000F00
000F00
00FFC0
00FFC0
001E00
003C00
003C00
003C00
007800
007800
007800
00F000
00F000
00F000
01E000
00F000
00FC00
007800
000000
000000
000000
000000
000000
000000
000000
000000
ENDCHAR
STARTCHAR u
ENCODING 117
SWIDTH 513 0
DWIDTH 19 0
BBX 31 37 -1 -8
BITMAP
00000000
00000000
00000000
00000000
00000000
00000000
00000000
00000000
00000000
00000000
00000000
00000000
00000000
003C0780
003C0780
003C0780
00780F00
00780F00
00780F00
00F01E00
00F01E00
00F01E00
01E03C00
01E03C00
01E03C00
03E0F800
01F1F800
01FFF800
00FEF000
00000000
00000000
00000000
00000000
00000000
00000000
00000000
00000000
ENDCHAR
STARTCHAR v
ENCODING 118
SWIDTH 432 0
DWIDTH 16 0
BBX 28 37 -1 -8
BITMAP
00000000
00000000
00000000
00000000
00000000
00000000
00000000
00000000
00000000
00000000
00000000
00000000
00000000
00F00F00
00F00F00
00F00F00
00F03C00
00F03C00
00787800
00F0F000
0079E000
0079E000
007F8000
007F8000
007F8000
007E0000
007E0000
003C0000
00780000
00000000
00000000
00000000
00000000
00000000
00000000
00000000
00000000
ENDCHAR
STARTCHAR w
ENCODING 119
SWIDTH 648 0
DWIDTH 24 0
BBX 36 37 -1 -8
BITMAP
0000000000
0000000000
0000000000
0000000000
0000000000
0000000000
0000000000
0000000000
0000000000
0000000000
0000000000
0000000000
0000000000
00F03C0F00
00F03C0F00
00F03C0F00
00F0FC3C00
00F0FC3C00
0079FE7800
00F3FCF000
00F3FCF000
007F9FE000
00FF3FC000
00FF3FC000
007E1F8000
00FC3F0000
00781E0000
00781E0000
00F03C0000
0000000000
0000000000
0000000000
0000000000
0000000000
0000000000
0000000000
0000000000
ENDCHAR
STARTCHAR x
ENCODING 120
SWIDTH 432 0
DWIDTH 16 0
BBX 28 37 -1 -8
BITMAP
00000000
00000000
00000000
00000000
00000000
00000000
00000000
00000000
00000000
00000000
00000000
00000000
00000000
00F00F00
00F81F00
007C3E00
007CF800
003CF000
003FF000
003FC000
001F8000
001F8000
007F8000
00FFC000
00F3C000
03E7C000
07C3E000
0F81F000
1E01E000
00000000
00000000
00000000
00000000
00000000
00000000
00000000
00000000
ENDCHAR
STARTCHAR y
ENCODING 121
SWIDTH 432 0
DWIDTH 16 0
BBX 28 37 -1 -8
BITMAP
00000000
00000000
00000000
00000000
00000000
00000000
00000000
00000000
00000000
00000000
00000000
00000000
00000000
00F00F00
00F00F00
00F00F00
00F03C00
00F03C00
00787800
00F0F000
0079E000
0079E000
007F8000
007F8000
003F0000
007E0000
003C0000
003C0000
00F00000
00F00000
01E00000
03C00000
07800000
0F800000
7E000000
78000000
00000000
ENDCHAR
STARTCHAR z
ENCODING 122
SWIDTH 459 0
DWIDTH 17 0
BBX 29 37 -1 -8
BITMAP
00000000
00000000
00000000
00000000
00000000
00000000
00000000
00000000
00000000
00000000
00000000
00000000
00000000
007FFE00
007FFE00
007FFE00
00007C00
0000F800
0001F000
0007C000
000F8000
000F0000
003E0000
007C0000
00F80000
03E00000
07FFF000
07FFF000
0FFFE000
00000000
00000000
00000000
00000000
00000000
00000000
00000000
00000000
ENDCHAR
STARTCHAR braceleft
ENCODING 123
SWIDTH 324 0
DWIDTH 12 0
BBX 24 37 -1 -8
BITMAP
000000
000000
000000
000000
000000
00003E
0000FE
0001F0
0003E0
0003C0
000780
000780
000780
000F00
000E00
001E00
007800
00F000
007800
007800
003800
003C00
007800
007800
007800
00F000
00F800
007C00
00FE00
003E00
000000
000000
000000
000000
000000
000000
000000
ENDCHAR
STARTCHAR bar
ENCODING 124
SWIDTH 216 0
DWIDTH 8 0
BBX 20 37 -1 -8
BITMAP
000000
000000
000000
000000
000000
000000
000780
000F00
000F00
000F00
001E00
001E00
001E00
003C00
003C00
003C00
007800
007800
007800
00F000
00F000
00F000
01E000
01E000
01E000
03C000
03C000
03C000
078000
000000
000000
000000
000000
000000
000000
000000
000000
ENDCHAR
STARTCHAR braceright
ENCODING 125
SWIDTH 324 0
DWIDTH 12 0
BBX 24 37 -1 -8
BITMAP
000000
000000
000000
000000
000000
000F80
000FE0
0007C0
0003E0
0001E0
0003C0
0003C0
0003C0
000780
000780
0003C0
0007C0
0003E0
0003C0
000F00
000E00
001E00
003C00
003C00
003C00
007800
00F800
01F000
0FE000
0F8000
000000
000000
000000
000000
000000
000000
000000
ENDCHAR
STARTCHAR asciitilde
ENCODING 126
SWIDTH 540 0
DWIDTH 20 0
BBX 32 37 -1 -8
BITMAP
00000000
00000000
00000000
00000000
00000000
00000000
0001F83C
0007F878
000FBEF8
000F0FF0
001E0FC0
00000000
00000000
00000000
00000000
00000000
00000000
00000000
00000000
00000000
00000000
00000000
00000000
00000000
00000000
00000000
00000000
00000000
00000000
00000000
00000000
00000000
00000000
00000000
00000000
00000000
00000000
ENDCHAR
STARTCHAR C177
ENCODING -1
SWIDTH 324 0
DWIDTH 12 0
BBX 24 37 -1 -8
BITMAP
000000
000000
000000
000000
000000
000000
0003F0
0007E0
0007E0
0007E0
000FC0
000FC0
000FC0
001F80
001F80
001F80
003F00
003F00
003F00
007E00
007E00
007E00
00FC00
00FC00
00FC00
01F800
01F800
01F800
03F000
000000
000000
000000
000000
000000
000000
000000
000000
ENDCHAR
STARTCHAR C200
ENCODING -1
SWIDTH 324 0
DWIDTH 12 0
BBX 24 37 -1 -8
BITMAP
000000
000000
000000
000000
000000
000000
0003F0
0007E0
0007E0
0007E0
000FC0
000FC0
000FC0
001F80
001F80
001F80
003F00
003F00
003F00
007E00
007E00
007E00
00FC00
00FC00
00FC00
01F800
01F800
01F800
03F000
000000
000000
000000
000000
000000
000000
000000
000000
ENDCHAR
STARTCHAR C201
ENCODING -1
SWIDTH 324 0
DWIDTH 12 0
BBX 24 37 -1 -8
BITMAP
000000
000000
000000
000000
000000
000000
0003F0
0007E0
0007E0
0007E0
000FC0
000FC0
000FC0
001F80
001F80
001F80
003F00
003F00
003F00
007E00
007E00
007E00
00FC00
00FC00
00FC00
01F800
01F800
01F800
03F000
000000
000000
000000
000000
000000
000000
000000
000000
ENDCHAR
STARTCHAR C202
ENCODING -1
SWIDTH 324 0
DWIDTH 12 0
BBX 24 37 -1 -8
BITMAP
000000
000000
000000
000000
000000
000000
0003F0
0007E0
0007E0
0007E0
000FC0
000FC0
000FC0
001F80
001F80
001F80
003F00
003F00
003F00
007E00
007E00
007E00
00FC00
00FC00
00FC00
01F800
01F800
01F800
03F000
000000
000000
000000
000000
000000
000000
000000
000000
ENDCHAR
STARTCHAR C203
ENCODING -1
SWIDTH 324 0
DWIDTH 12 0
BBX 24 37 -1 -8
BITMAP
000000
000000
000000
000000
000000
000000
0003F0
0007E0
0007E0
0007E0
000FC0
000FC0
000FC0
001F80
001F80
001F80
003F00
003F00
003F00
007E00
007E00
007E00
00FC00
00FC00
00FC00
01F800
01F800
01F800
03F000
000000
000000
000000
000000
000000
000000
000000
000000
ENDCHAR
STARTCHAR C204
ENCODING -1
SWIDTH 324 0
DWIDTH 12 0
BBX 24 37 -1 -8
BITMAP
000000
000000
000000
000000
000000
000000
0003F0
0007E0
0007E0
0007E0
000FC0
000FC0
000FC0
001F80
001F80
001F80
003F00
003F00
003F00
007E00
007E00
007E00
00FC00
00FC00
00FC00
01F800
01F800
01F800
03F000
000000
000000
000000
000000
000000
000000
000000
000000
ENDCHAR
STARTCHAR C205
ENCODING -1
SWIDTH 324 0
DWIDTH 12 0
BBX 24 37 -1 -8
BITMAP
000000
000000
000000
000000
000000
000000
0003F0
0007E0
0007E0
0007E0
000FC0
000FC0
000FC0
001F80
001F80
001F80
003F00
003F00
003F00
007E00
007E00
007E00
00FC00
00FC00
00FC00
01F800
01F800
01F800
03F000
000000
000000
000000
000000
000000
000000
000000
000000
ENDCHAR
STARTCHAR C206
ENCODING -1
SWIDTH 324 0
DWIDTH 12 0
BBX 24 37 -1 -8
BITMAP
000000
000000
000000
000000
000000
000000
0003F0
0007E0
0007E0
0007E0
000FC0
000FC0
000FC0
001F80
001F80
001F80
003F00
003F00
003F00
007E00
007E00
007E00
00FC00
00FC00
00FC00
01F800
01F800
01F800
03F000
000000
000000
000000
000000
000000
000000
000000
000000
ENDCHAR
STARTCHAR C207
ENCODING -1
SWIDTH 324 0
DWIDTH 12 0
BBX 24 37 -1 -8
BITMAP
000000
000000
000000
000000
000000
000000
0003F0
0007E0
0007E0
0007E0
000FC0
000FC0
000FC0
001F80
001F80
001F80
003F00
003F00
003F00
007E00
007E00
007E00
00FC00
00FC00
00FC00
01F800
01F800
01F800
03F000
000000
000000
000000
000000
000000
000000
000000
000000
ENDCHAR
STARTCHAR C210
ENCODING -1
SWIDTH 324 0
DWIDTH 12 0
BBX 24 37 -1 -8
BITMAP
000000
000000
000000
000000
000000
000000
0003F0
0007E0
0007E0
0007E0
000FC0
000FC0
000FC0
001F80
001F80
001F80
003F00
003F00
003F00
007E00
007E00
007E00
00FC00
00FC00
00FC00
01F800
01F800
01F800
03F000
000000
000000
000000
000000
000000
000000
000000
000000
ENDCHAR
STARTCHAR C211
ENCODING -1
SWIDTH 324 0
DWIDTH 12 0
BBX 24 37 -1 -8
BITMAP
000000
000000
000000
000000
000000
000000
0003F0
0007E0
0007E0
0007E0
000FC0
000FC0
000FC0
001F80
001F80
001F80
003F00
003F00
003F00
007E00
007E00
007E00
00FC00
00FC00
00FC00
01F800
01F800
01F800
03F000
000000
000000
000000
000000
000000
000000
000000
000000
ENDCHAR
STARTCHAR C212
ENCODING -1
SWIDTH 324 0
DWIDTH 12 0
BBX 24 37 -1 -8
BITMAP
000000
000000
000000
000000
000000
000000
0003F0
0007E0
0007E0
0007E0
000FC0
000FC0
000FC0
001F80
001F80
001F80
003F00
003F00
003F00
007E00
007E00
007E00
00FC00
00FC00
00FC00
01F800
01F800
01F800
03F000
000000
000000
000000
000000
000000
000000
000000
000000
ENDCHAR
STARTCHAR C213
ENCODING -1
SWIDTH 324 0
DWIDTH 12 0
BBX 24 37 -1 -8
BITMAP
000000
000000
000000
000000
000000
000000
0003F0
0007E0
0007E0
0007E0
000FC0
000FC0
000FC0
001F80
001F80
001F80
003F00
003F00
003F00
007E00
007E00
007E00
00FC00
00FC00
00FC00
01F800
01F800
01F800
03F000
000000
000000
000000
000000
000000
000000
000000
000000
ENDCHAR
STARTCHAR C214
ENCODING -1
SWIDTH 324 0
DWIDTH 12 0
BBX 24 37 -1 -8
BITMAP
000000
000000
000000
000000
000000
000000
0003F0
0007E0
0007E0
0007E0
000FC0
000FC0
000FC0
001F80
001F80
001F80
003F00
003F00
003F00
007E00
007E00
007E00
00FC00
00FC00
00FC00
01F800
01F800
01F800
03F000
000000
000000
000000
000000
000000
000000
000000
000000
ENDCHAR
STARTCHAR C215
ENCODING -1
SWIDTH 324 0
DWIDTH 12 0
BBX 24 37 -1 -8
BITMAP
000000
000000
000000
000000
000000
000000
0003F0
0007E0
0007E0
0007E0
000FC0
000FC0
000FC0
001F80
001F80
001F80
003F00
003F00
003F00
007E00
007E00
007E00
00FC00
00FC00
00FC00
01F800
01F800
01F800
03F000
000000
000000
000000
000000
000000
000000
000000
000000
ENDCHAR
STARTCHAR C216
ENCODING -1
SWIDTH 324 0
DWIDTH 12 0
BBX 24 37 -1 -8
BITMAP
000000
000000
000000
000000
000000
000000
0003F0
0007E0
0007E0
0007E0
000FC0
000FC0
000FC0
001F80
001F80
001F80
003F00
003F00
003F00
007E00
007E00
007E00
00FC00
00FC00
00FC00
01F800
01F800
01F800
03F000
000000
000000
000000
000000
000000
000000
000000
000000
ENDCHAR
STARTCHAR C217
ENCODING -1
SWIDTH 324 0
DWIDTH 12 0
BBX 24 37 -1 -8
BITMAP
000000
000000
000000
000000
000000
000000
0003F0
0007E0
0007E0
0007E0
000FC0
000FC0
000FC0
001F80
001F80
001F80
003F00
003F00
003F00
007E00
007E00
007E00
00FC00
00FC00
00FC00
01F800
01F800
01F800
03F000
000000
000000
000000
000000
000000
000000
000000
000000
ENDCHAR
STARTCHAR C220
ENCODING -1
SWIDTH 324 0
DWIDTH 12 0
BBX 24 37 -1 -8
BITMAP
000000
000000
000000
000000
000000
000000
0003F0
0007E0
0007E0
0007E0
000FC0
000FC0
000FC0
001F80
001F80
001F80
003F00
003F00
003F00
007E00
007E00
007E00
00FC00
00FC00
00FC00
01F800
01F800
01F800
03F000
000000
000000
000000
000000
000000
000000
000000
000000
ENDCHAR
STARTCHAR C221
ENCODING -1
SWIDTH 270 0
DWIDTH 10 0
BBX 22 37 -1 -8
BITMAP
000000
000000
000000
000000
000000
000000
0000C0
000300
000600
000780
000F00
000F00
000000
000000
000000
000000
000000
000000
000000
000000
000000
000000
000000
000000
000000
000000
000000
000000
000000
000000
000000
000000
000000
000000
000000
000000
000000
ENDCHAR
STARTCHAR C222
ENCODING -1
SWIDTH 270 0
DWIDTH 10 0
BBX 22 37 -1 -8
BITMAP
000000
000000
000000
000000
000000
000000
0003C0
000780
000780
000180
000600
000C00
000000
000000
000000
000000
000000
000000
000000
000000
000000
000000
000000
000000
000000
000000
000000
000000
000000
000000
000000
000000
000000
000000
000000
000000
000000
ENDCHAR
STARTCHAR C223
ENCODING -1
SWIDTH 324 0
DWIDTH 12 0
BBX 24 37 -1 -8
BITMAP
000000
000000
000000
000000
000000
000000
0003F0
0007E0
0007E0
0007E0
000FC0
000FC0
000FC0
001F80
001F80
001F80
003F00
003F00
003F00
007E00
007E00
007E00
00FC00
00FC00
00FC00
01F800
01F800
01F800
03F000
000000
000000
000000
000000
000000
000000
000000
000000
ENDCHAR
STARTCHAR C224
ENCODING -1
SWIDTH 324 0
DWIDTH 12 0
BBX 24 37 -1 -8
BITMAP
000000
000000
000000
000000
000000
000000
0003F0
0007E0
0007E0
0007E0
000FC0
000FC0
000FC0
001F80
001F80
001F80
003F00
003F00
003F00
007E00
007E00
007E00
00FC00
00FC00
00FC00
01F800
01F800
01F800
03F000
000000
000000
000000
000000
000000
000000
000000
000000
ENDCHAR
STARTCHAR C225
ENCODING -1
SWIDTH 324 0
DWIDTH 12 0
BBX 24 37 -1 -8
BITMAP
000000
000000
000000
000000
000000
000000
0003F0
0007E0
0007E0
0007E0
000FC0
000FC0
000FC0
001F80
001F80
001F80
003F00
003F00
003F00
007E00
007E00
007E00
00FC00
00FC00
00FC00
01F800
01F800
01F800
03F000
000000
000000
000000
000000
000000
000000
000000
000000
ENDCHAR
STARTCHAR C226
ENCODING -1
SWIDTH 324 0
DWIDTH 12 0
BBX 24 37 -1 -8
BITMAP
000000
000000
000000
000000
000000
000000
0003F0
0007E0
0007E0
0007E0
000FC0
000FC0
000FC0
001F80
001F80
001F80
003F00
003F00
003F00
007E00
007E00
007E00
00FC00
00FC00
00FC00
01F800
01F800
01F800
03F000
000000
000000
000000
000000
000000
000000
000000
000000
ENDCHAR
STARTCHAR C227
ENCODING -1
SWIDTH 324 0
DWIDTH 12 0
BBX 24 37 -1 -8
BITMAP
000000
000000
000000
000000
000000
000000
0003F0
0007E0
0007E0
0007E0
000FC0
000FC0
000FC0
001F80
001F80
001F80
003F00
003F00
003F00
007E00
007E00
007E00
00FC00
00FC00
00FC00
01F800
01F800
01F800
03F000
000000
000000
000000
000000
000000
000000
000000
000000
ENDCHAR
STARTCHAR C230
ENCODING -1
SWIDTH 324 0
DWIDTH 12 0
BBX 24 37 -1 -8
BITMAP
000000
000000
000000
000000
000000
000000
0003F0
0007E0
0007E0
0007E0
000FC0
000FC0
000FC0
001F80
001F80
001F80
003F00
003F00
003F00
007E00
007E00
007E00
00FC00
00FC00
00FC00
01F800
01F800
01F800
03F000
000000
000000
000000
000000
000000
000000
000000
000000
ENDCHAR
STARTCHAR C231
ENCODING -1
SWIDTH 324 0
DWIDTH 12 0
BBX 24 37 -1 -8
BITMAP
000000
000000
000000
000000
000000
000000
0003F0
0007E0
0007E0
0007E0
000FC0
000FC0
000FC0
001F80
001F80
001F80
003F00
003F00
003F00
007E00
007E00
007E00
00FC00
00FC00
00FC00
01F800
01F800
01F800
03F000
000000
000000
000000
000000
000000
000000
000000
000000
ENDCHAR
STARTCHAR C232
ENCODING -1
SWIDTH 324 0
DWIDTH 12 0
BBX 24 37 -1 -8
BITMAP
000000
000000
000000
000000
000000
000000
0003F0
0007E0
0007E0
0007E0
000FC0
000FC0
000FC0
001F80
001F80
001F80
003F00
003F00
003F00
007E00
007E00
007E00
00FC00
00FC00
00FC00
01F800
01F800
01F800
03F000
000000
000000
000000
000000
000000
000000
000000
000000
ENDCHAR
STARTCHAR C233
ENCODING -1
SWIDTH 324 0
DWIDTH 12 0
BBX 24 37 -1 -8
BITMAP
000000
000000
000000
000000
000000
000000
0003F0
0007E0
0007E0
0007E0
000FC0
000FC0
000FC0
001F80
001F80
001F80
003F00
003F00
003F00
007E00
007E00
007E00
00FC00
00FC00
00FC00
01F800
01F800
01F800
03F000
000000
000000
000000
000000
000000
000000
000000
000000
ENDCHAR
STARTCHAR C234
ENCODING -1
SWIDTH 324 0
DWIDTH 12 0
BBX 24 37 -1 -8
BITMAP
000000
000000
000000
000000
000000
000000
0003F0
0007E0
0007E0
0007E0
000FC0
000FC0
000FC0
001F80
001F80
001F80
003F00
003F00
003F00
007E00
007E00
007E00
00FC00
00FC00
00FC00
01F800
01F800
01F800
03F000
000000
000000
000000
000000
000000
000000
000000
000000
ENDCHAR
STARTCHAR C235
ENCODING -1
SWIDTH 324 0
DWIDTH 12 0
BBX 24 37 -1 -8
BITMAP
000000
000000
000000
000000
000000
000000
0003F0
0007E0
0007E0
0007E0
000FC0
000FC0
000FC0
001F80
001F80
001F80
003F00
003F00
003F00
007E00
007E00
007E00
00FC00
00FC00
00FC00
01F800
01F800
01F800
03F000
000000
000000
000000
000000
000000
000000
000000
000000
ENDCHAR
STARTCHAR C236
ENCODING -1
SWIDTH 324 0
DWIDTH 12 0
BBX 24 37 -1 -8
BITMAP
000000
000000
000000
000000
000000
000000
0003F0
0007E0
0007E0
0007E0
000FC0
000FC0
000FC0
001F80
001F80
001F80
003F00
003F00
003F00
007E00
007E00
007E00
00FC00
00FC00
00FC00
01F800
01F800
01F800
03F000
000000
000000
000000
000000
000000
000000
000000
000000
ENDCHAR
STARTCHAR C237
ENCODING -1
SWIDTH 324 0
DWIDTH 12 0
BBX 24 37 -1 -8
BITMAP
000000
000000
000000
000000
000000
000000
0003F0
0007E0
0007E0
0007E0
000FC0
000FC0
000FC0
001F80
001F80
001F80
003F00
003F00
003F00
007E00
007E00
007E00
00FC00
00FC00
00FC00
01F800
01F800
01F800
03F000
000000
000000
000000
000000
000000
000000
000000
000000
ENDCHAR
STARTCHAR C240
ENCODING 160
SWIDTH 270 0
DWIDTH 10 0
BBX 22 37 -1 -8
BITMAP
000000
000000
000000
000000
000000
000000
000000
000000
000000
000000
000000
000000
000000
000000
000000
000000
000000
000000
000000
000000
000000
000000
000000
000000
000000
000000
000000
000000
000000
000000
000000
000000
000000
000000
000000
000000
000000
ENDCHAR
STARTCHAR exclamdown
ENCODING 161
SWIDTH 270 0
DWIDTH 10 0
BBX 22 37 -1 -8
BITMAP
000000
000000
000000
000000
000000
000000
0003C0
000780
000780
000000
000000
000000
000600
000C00
000C00
001E00
003C00
003C00
003C00
007800
007800
007800
00F000
00F000
00F000
01E000
01E000
01E000
03C000
000000
000000
000000
000000
000000
000000
000000
000000
ENDCHAR
STARTCHAR cent
ENCODING 162
SWIDTH 513 0
DWIDTH 19 0
BBX 31 37 -1 -8
BITMAP
00000000
00000000
00000000
00000000
00000000
00000000
00000000
00000000
00000000
00000000
00000E00
00000E00
00000E00
0003FC00
000FFF00
001FBF80
003CEF00
007CEF00
0078E000
00F38000
00F38000
00F38000
01E70000
01EE0000
01FE3C00
01FC7800
01F9F800
00FFF000
007F8000
00E00000
00E00000
01C00000
00000000
00000000
00000000
00000000
00000000
ENDCHAR
STARTCHAR sterling
ENCODING 184
SWIDTH 513 0
DWIDTH 19 0
BBX 31 37 -1 -8
BITMAP
00000000
00000000
00000000
00000000
00000000
00000000
00003E00
0001FF00
0003FF80
0007C7C0
000F0780
001E03C0
001E03C0
003C0000
003C0000
001E0000
003C0000
00FFE000
00FFE000
001C0000
001C0000
001C0000
00380000
00380000
00780000
00FE1C00
01FFFC00
03FFFC00
0387F000
00000000
00000000
00000000
00000000
00000000
00000000
00000000
00000000
ENDCHAR
STARTCHAR currency
ENCODING 164
SWIDTH 513 0
DWIDTH 19 0
BBX 31 37 -1 -8
BITMAP
00000000
00000000
00000000
00000000
00000000
00000000
00000000
00030180
0007FFC0
0003FF80
00078F00
00070700
000E0380
001C0700
001C0700
001C0700
001C1C00
001E3C00
001FFC00
007FFC00
00301800
00000000
00000000
00000000
00000000
00000000
00000000
00000000
00000000
00000000
00000000
00000000
00000000
00000000
00000000
00000000
00000000
ENDCHAR
STARTCHAR yen
ENCODING 165
SWIDTH 513 0
DWIDTH 19 0
BBX 31 37 -1 -8
BITMAP
00000000
00000000
00000000
00000000
00000000
00000000
000E0038
001E00F0
000E00E0
000F01E0
000E0380
000F0780
00070700
000F1E00
00071C00
0007BC00
00077000
007FFF00
007FFF00
0007C000
00038000
00038000
01FFFC00
01FFFC00
00070000
000E0000
000E0000
000E0000
001C0000
00000000
00000000
00000000
00000000
00000000
00000000
00000000
00000000
ENDCHAR
STARTCHAR brokenbar
ENCODING 166
SWIDTH 216 0
DWIDTH 8 0
BBX 20 37 -1 -8
BITMAP
000000
000000
000000
000000
000000
000000
000780
000F00
000F00
000F00
001E00
001E00
001E00
003C00
003C00
000000
000000
000000
000000
00F000
00F000
00F000
01E000
01E000
01E000
03C000
03C000
03C000
078000
000000
000000
000000
000000
000000
000000
000000
000000
ENDCHAR
STARTCHAR section
ENCODING 167
SWIDTH 513 0
DWIDTH 19 0
BBX 31 37 -1 -8
BITMAP
00000000
00000000
00000000
00000000
00000000
00000000
00001E00
0000FF00
0001E780
0003C380
00078780
00078780
0007C000
0007C000
0003F000
0007FC00
001EFC00
003C3E00
00781E00
00F01E00
00F01E00
00F01E00
00F03C00
00F87800
007EF000
007FC000
001F8000
0007C000
0007C000
03C3C000
03C3C000
03878000
03CF0000
01FE0000
00F00000
00000000
00000000
ENDCHAR
STARTCHAR dieresis
ENCODING 168
SWIDTH 324 0
DWIDTH 12 0
BBX 24 37 -1 -8
BITMAP
000000
000000
000000
000000
000000
000000
0007BC
000F78
000F78
000000
000000
000000
000000
000000
000000
000000
000000
000000
000000
000000
000000
000000
000000
000000
000000
000000
000000
000000
000000
000000
000000
000000
000000
000000
000000
000000
000000
ENDCHAR
STARTCHAR copyright
ENCODING 169
SWIDTH 675 0
DWIDTH 25 0
BBX 37 37 -1 -8
BITMAP
0000000000
0000000000
0000000000
0000000000
0000000000
0000000000
000007C000
00007FF000
0001F07C00
0003C01E00
000F001E00
000E000E00
001C1F8700
00387F8E00
0030F38600
0070E00700
00E1C00E00
00E1C00E00
00E1C00E00
01C3801C00
00C3CE1800
00E1FE3800
01C1F87000
00E000E000
00F001E000
00F0078000
007C1F0000
001FFC0000
0007C00000
0000000000
0000000000
0000000000
0000000000
0000000000
0000000000
0000000000
0000000000
ENDCHAR
STARTCHAR ordfeminine
ENCODING 170
SWIDTH 351 0
DWIDTH 13 0
BBX 25 37 -1 -8
BITMAP
00000000
00000000
00000000
00000000
00000000
00000000
0001F000
0007F000
000F3800
0000F800
000FF000
001F7000
001C7000
0039E000
003FE000
001F7000
00000000
00000000
007FC000
00FF8000
00000000
00000000
00000000
00000000
00000000
00000000
00000000
00000000
00000000
00000000
00000000
00000000
00000000
00000000
00000000
00000000
00000000
ENDCHAR
STARTCHAR guillemotleft
ENCODING 171
SWIDTH 513 0
DWIDTH 19 0
BBX 31 37 -1 -8
BITMAP
00000000
00000000
00000000
00000000
00000000
00000000
00000000
00000000
00000000
00000000
00000000
00000000
00000000
00000000
00000000
00078780
001E1E00
003C3C00
00787800
01E1E000
01C1C000
01E1E000
01E1E000
00F0F000
00787800
00787800
00000000
00000000
00000000
00000000
00000000
00000000
00000000
00000000
00000000
00000000
00000000
ENDCHAR
STARTCHAR logicalnot
ENCODING 172
SWIDTH 540 0
DWIDTH 20 0
BBX 32 37 -1 -8
BITMAP
00000000
00000000
00000000
00000000
00000000
00000000
00000000
00000000
00000000
00000000
00000000
00000000
00000000
00000000
00000000
00000000
00000000
007FFFC0
007FFFC0
00FFFF80
00000780
00000780
00000F00
00000F00
00000000
00000000
00000000
00000000
00000000
00000000
00000000
00000000
00000000
00000000
00000000
00000000
00000000
ENDCHAR
STARTCHAR hyphen
ENCODING 173
SWIDTH 297 0
DWIDTH 11 0
BBX 23 37 -1 -8
BITMAP
000000
000000
000000
000000
000000
000000
000000
000000
000000
000000
000000
000000
000000
000000
000000
000000
000000
000000
000000
000000
000000
01FF00
03FE00
000000
000000
000000
000000
000000
000000
000000
000000
000000
000000
000000
000000
000000
000000
ENDCHAR
STARTCHAR registered
ENCODING 174
SWIDTH 675 0
DWIDTH 25 0
BBX 37 37 -1 -8
BITMAP
0000000000
0000000000
0000000000
0000000000
0000000000
0000000000
000007C000
00007FF000
0001F07C00
0003C01E00
000F001E00
000E000E00
001C7F8700
0038FF0E00
0030E38600
0070E38700
00E1C70E00
00E1FE0E00
00E1FF0E00
01C38E1C00
00C38E1800
00E38E3800
01C71C7000
00E000E000
00F001E000
00F0078000
007C1F0000
001FFC0000
0007C00000
0000000000
0000000000
0000000000
0000000000
0000000000
0000000000
0000000000
0000000000
ENDCHAR
STARTCHAR macron
ENCODING 175
SWIDTH 459 0
DWIDTH 17 0
BBX 29 37 -1 -8
BITMAP
00000000
00000000
00000000
000FFFF8
001FFFF0
00000000
00000000
00000000
00000000
00000000
00000000
00000000
00000000
00000000
00000000
00000000
00000000
00000000
00000000
00000000
00000000
00000000
00000000
00000000
00000000
00000000
00000000
00000000
00000000
00000000
00000000
00000000
00000000
00000000
00000000
00000000
00000000
ENDCHAR
STARTCHAR degree
ENCODING 176
SWIDTH 324 0
DWIDTH 12 0
BBX 24 37 -1 -8
BITMAP
000000
000000
000000
000000
000000
000000
0001E0
000FF0
000E70
001C38
003870
003870
001CE0
003FC0
000F00
000000
000000
000000
000000
000000
000000
000000
000000
000000
000000
000000
000000
000000
000000
000000
000000
000000
000000
000000
000000
000000
000000
ENDCHAR
STARTCHAR plusminus
ENCODING 177
SWIDTH 540 0
DWIDTH 20 0
BBX 32 37 -1 -8
BITMAP
00000000
00000000
00000000
00000000
00000000
00000000
00000000
00003C00
00003C00
00003C00
00007800
00007800
00007800
0000F000
007FFFE0
007FFFE0
00FFFFC0
0001E000
0001E000
0003C000
0003C000
0003C000
00078000
00078000
00000000
00000000
07FFFE00
07FFFE00
0FFFFC00
00000000
00000000
00000000
00000000
00000000
00000000
00000000
00000000
ENDCHAR
STARTCHAR twosuperior
ENCODING 178
SWIDTH 270 0
DWIDTH 10 0
BBX 22 37 -1 -8
BITMAP
000000
000000
000000
000000
000000
000000
0003E0
000FE0
001C70
000070
0003C0
000F80
001E00
003800
007000
007FC0
00FF80
000000
000000
000000
000000
000000
000000
000000
000000
000000
000000
000000
000000
000000
000000
000000
000000
000000
000000
000000
000000
ENDCHAR
STARTCHAR threesuperior
ENCODING 168
SWIDTH 270 0
DWIDTH 10 0
BBX 22 37 -1 -8
BITMAP
000000
000000
000000
000000
000000
000000
0003E0
000FE0
001C70
000070
0007C0
0007C0
0000E0
0001C0
0071C0
003F80
003E00
000000
000000
000000
000000
000000
000000
000000
000000
000000
000000
000000
000000
000000
000000
000000
000000
000000
000000
000000
000000
ENDCHAR
STARTCHAR acute
ENCODING 180
SWIDTH 324 0
DWIDTH 12 0
BBX 24 37 -1 -8
BITMAP
000000
000000
000000
000000
000000
000000
0001F8
0007C0
000F00
000C00
000000
000000
000000
000000
000000
000000
000000
000000
000000
000000
000000
000000
000000
000000
000000
000000
000000
000000
000000
000000
000000
000000
000000
000000
000000
000000
000000
ENDCHAR
STARTCHAR mu
ENCODING 181
SWIDTH 513 0
DWIDTH 19 0
BBX 31 37 -1 -8
BITMAP
00000000
00000000
00000000
00000000
00000000
00000000
00000000
00000000
00000000
00000000
00000000
00000000
00000000
003C0780
003C0780
003C0780
00780F00
00780F00
00780F00
00F01E00
00F01E00
00F01E00
01E03C00
01E03C00
01E03C00
03E0F800
03F1FC00
03FFBE00
07FE3C00
07800000
07800000
0F000000
0F000000
0F000000
1E000000
1E000000
00000000
ENDCHAR
STARTCHAR paragraph
ENCODING 182
SWIDTH 486 0
DWIDTH 18 0
BBX 30 37 -1 -8
BITMAP
00000000
00000000
00000000
00000000
00000000
00000000
00007FF0
0003FFE0
0007FB80
0007FB80
001FF700
001FF700
001FF700
003FEE00
003FEE00
001FEE00
003FDC00
001FDC00
0007DC00
0003B800
0003B800
0003B800
00077000
00077000
00077000
000EE000
000EE000
000EE000
001DC000
001DC000
001DC000
003B8000
003B8000
003B8000
00000000
00000000
00000000
ENDCHAR
STARTCHAR periodcentered
ENCODING 183
SWIDTH 270 0
DWIDTH 10 0
BBX 22 37 -1 -8
BITMAP
000000
000000
000000
000000
000000
000000
000000
000000
000000
000000
000000
000000
000000
000000
000000
001E00
003C00
003C00
000000
000000
000000
000000
000000
000000
000000
000000
000000
000000
000000
000000
000000
000000
000000
000000
000000
000000
000000
ENDCHAR
STARTCHAR cedilla
ENCODING 184
SWIDTH 324 0
DWIDTH 12 0
BBX 24 37 -1 -8
BITMAP
000000
000000
000000
000000
000000
000000
000000
000000
000000
000000
000000
000000
000000
000000
000000
000000
000000
000000
000000
000000
000000
000000
000000
000000
000000
000000
000000
000000
000000
01C000
01C000
070000
07E000
007000
00E000
1FC000
000000
ENDCHAR
STARTCHAR onesuperior
ENCODING 185
SWIDTH 270 0
DWIDTH 10 0
BBX 22 37 -1 -8
BITMAP
000000
000000
000000
000000
000000
000000
0001C0
000F80
000F80
000380
000700
000700
000700
000E00
000E00
000E00
001C00
000000
000000
000000
000000
000000
000000
000000
000000
000000
000000
000000
000000
000000
000000
000000
000000
000000
000000
000000
000000
ENDCHAR
STARTCHAR ordmasculine
ENCODING 186
SWIDTH 351 0
DWIDTH 13 0
BBX 25 37 -1 -8
BITMAP
00000000
00000000
00000000
00000000
00000000
00000000
0001F000
0007F000
000F7800
000E3800
001C7000
001C7000
001C7000
003DE000
001FC000
000F8000
00000000
00000000
007FC000
00FF8000
00000000
00000000
00000000
00000000
00000000
00000000
00000000
00000000
00000000
00000000
00000000
00000000
00000000
00000000
00000000
00000000
00000000
ENDCHAR
STARTCHAR guillemotright
ENCODING 187
SWIDTH 513 0
DWIDTH 19 0
BBX 31 37 -1 -8
BITMAP
00000000
00000000
00000000
00000000
00000000
00000000
00000000
00000000
00000000
00000000
00000000
00000000
00000000
00000000
00000000
003C3C00
003C3C00
001E1E00
000F0F00
000F0F00
00070700
000F0F00
003C3C00
00787800
00F0F000
03C3C000
00000000
00000000
00000000
00000000
00000000
00000000
00000000
00000000
00000000
00000000
00000000
ENDCHAR
STARTCHAR onequarter
ENCODING 188
SWIDTH 648 0
DWIDTH 24 0
BBX 36 37 -1 -8
BITMAP
0000000000
0000000000
0000000000
0000000000
0000000000
0000000000
0000E00780
0007C01E00
0007C01C00
0001C03C00
000380F000
000380E000
000381E000
0007078000
0007070000
00070F0000
000E3C0000
0000380000
0000783800
0001E0F000
0001C1F000
0003C3F000
000F07E000
000E0EE000
001E1CE000
00783FE000
00703FE000
00F001C000
03C0038000
0000000000
0000000000
0000000000
0000000000
0000000000
0000000000
0000000000
0000000000
ENDCHAR
STARTCHAR onehalf
ENCODING 189
SWIDTH 648 0
DWIDTH 24 0
BBX 36 37 -1 -8
BITMAP
0000000000
0000000000
0000000000
0000000000
0000000000
0000000000
0000E00780
0007C01E00
0007C01C00
0001C03C00
000380F000
000380E000
000381E000
0007078000
0007070000
00070F0000
000E3C0000
0000380000
000079F000
0001E7F000
0001CE3800
0003CE3800
000F01E000
000E07C000
001E0F0000
00781C0000
0070380000
00F03FE000
03C07FC000
0000000000
0000000000
0000000000
0000000000
0000000000
0000000000
0000000000
0000000000
ENDCHAR
STARTCHAR threequarters
ENCODING 190
SWIDTH 648 0
DWIDTH 24 0
BBX 36 37 -1 -8
BITMAP
0000000000
0000000000
0000000000
0000000000
0000000000
0000000000
0001F00780
0007F01E00
000E381C00
0000383C00
0003E0F000
0003E0E000
000071E000
0000E78000
0038E70000
001FCF0000
001F3C0000
0000380000
0000783800
0001E0F000
0001C1F000
0003C3F000
000F07E000
000E0EE000
001E1CE000
00783FE000
00703FE000
00F001C000
03C0038000
0000000000
0000000000
0000000000
0000000000
0000000000
0000000000
0000000000
0000000000
ENDCHAR
STARTCHAR questiondown
ENCODING 191
SWIDTH 486 0
DWIDTH 18 0
BBX 30 37 -1 -8
BITMAP
00000000
00000000
00000000
00000000
00000000
00000000
00003C00
00007800
00007800
00000000
00000000
00000000
0000F000
0001E000
0003C000
0007C000
001F0000
003E0000
007C0000
00F00000
01E00000
01E00000
03C03C00
03C03C00
01E07800
03E1F000
01FFE000
00FFC000
007E0000
00000000
00000000
00000000
00000000
00000000
00000000
00000000
00000000
ENDCHAR
STARTCHAR cyr-A
ENCODING 192
SWIDTH 621 0
DWIDTH 23 0
BBX 35 37 -1 -8
BITMAP
0000000000
0000000000
0000000000
0000000000
0000000000
0000000000
00000FC000
00001F8000
00003FC000
00003FC000
00007F8000
0000FFC000
0000F3C000
0001E78000
0003E7C000
0003C3C000
000F87C000
000F03C000
000F03C000
003E07C000
003C03C000
003FFFC000
00FFFFC000
00FFFFC000
01F003E000
03C003C000
03C003C000
07C003E000
0F0003C000
0000000000
0000000000
0000000000
0000000000
0000000000
0000000000
0000000000
0000000000
ENDCHAR
STARTCHAR cyr-Be
ENCODING 193
SWIDTH 594 0
DWIDTH 22 0
BBX 34 37 -1 -8
BITMAP
0000000000
0000000000
0000000000
0000000000
0000000000
0000000000
0003FFFE00
0007FFFC00
0007FFFC00
0007800000
000F000000
000F000000
000F000000
001E000000
001E000000
001FFF8000
003FFF8000
003FFFC000
003C03E000
007803C000
007801E000
007801E000
00F003C000
00F003C000
00F007C000
01E01F0000
01FFFF0000
01FFFE0000
03FFF00000
0000000000
0000000000
0000000000
0000000000
0000000000
0000000000
0000000000
0000000000
ENDCHAR
STARTCHAR cyr-Ve
ENCODING 194
SWIDTH 594 0
DWIDTH 22 0
BBX 34 37 -1 -8
BITMAP
0000000000
0000000000
0000000000
0000000000
0000000000
0000000000
0003FFE000
0007FFF000
0007FFF800
0007807800
000F007800
000F007800
000F007800
001E00F000
001E01E000
001FFFE000
003FFF8000
003FFFC000
003C03E000
007803C000
007801E000
007801E000
00F003C000
00F003C000
00F007C000
01E01F0000
01FFFF0000
01FFFE0000
03FFF00000
0000000000
0000000000
0000000000
0000000000
0000000000
0000000000
0000000000
0000000000
ENDCHAR
STARTCHAR cyr-Ghe
ENCODING 195
SWIDTH 594 0
DWIDTH 22 0
BBX 34 37 -1 -8
BITMAP
0000000000
0000000000
0000000000
0000000000
0000000000
0000000000
0003FFFF00
0007FFFE00
0007FFFE00
0007800000
000F000000
000F000000
000F000000
001E000000
001E000000
001E000000
003C000000
003C000000
003C000000
0078000000
0078000000
0078000000
00F0000000
00F0000000
00F0000000
01E0000000
01E0000000
01E0000000
03C0000000
0000000000
0000000000
0000000000
0000000000
0000000000
0000000000
0000000000
0000000000
ENDCHAR
STARTCHAR cyr-De
ENCODING 196
SWIDTH 648 0
DWIDTH 24 0
BBX 36 37 -1 -8
BITMAP
0000000000
0000000000
0000000000
0000000000
0000000000
0000000000
00007FFE00
0000FFFC00
0000FFFC00
0000F03C00
0001E07800
0001E07800
0001E07800
0003C0F000
0003C0F000
0003C0F000
000781E000
000781E000
000781E000
000F03C000
000F03C000
000F03C000
001E078000
001E078000
003E078000
00F80F0000
07FFFFE000
07FFFFE000
0FFFFFC000
0F0003C000
0F0003C000
1E00078000
0000000000
0000000000
0000000000
0000000000
0000000000
ENDCHAR
STARTCHAR cyr-Ie
ENCODING 197
SWIDTH 594 0
DWIDTH 22 0
BBX 34 37 -1 -8
BITMAP
0000000000
0000000000
0000000000
0000000000
0000000000
0000000000
0003FFFF00
0007FFFE00
0007FFFE00
0007800000
000F000000
000F000000
000F000000
001E000000
001E000000
001FFFE000
003FFFC000
003FFFC000
003C000000
0078000000
0078000000
0078000000
00F0000000
00F0000000
00F0000000
01E0000000
01FFFF8000
01FFFF8000
03FFFF0000
0000000000
0000000000
0000000000
0000000000
0000000000
0000000000
0000000000
0000000000
ENDCHAR
STARTCHAR cyr-Zhe
ENCODING 198
SWIDTH 864 0
DWIDTH 32 0
BBX 44 37 -1 -8
BITMAP
000000000000
000000000000
000000000000
000000000000
000000000000
000000000000
000780780780
000F80F01F00
0007C0F03E00
0003E0F07C00
0003E1E1F000
0001F1E3E000
0000F9E7C000
0000FBDF0000
00007FFE0000
00003FFC0000
00003FF00000
00007FF80000
0000FFFC0000
0003EF7C0000
0007CF3E0000
000F8F1F0000
003E1E1F0000
007C1E0F8000
00F81E07C000
03E03C07C000
07C03C03E000
0F803C01F000
1E007801E000
000000000000
000000000000
000000000000
000000000000
000000000000
000000000000
000000000000
000000000000
ENDCHAR
STARTCHAR cyr-Ze
ENCODING 199
SWIDTH 540 0
DWIDTH 20 0
BBX 32 37 -1 -8
BITMAP
00000000
00000000
00000000
00000000
00000000
00000000
0000FFE0
0007FFE0
000FFFF0
000F01F0
000001E0
000001E0
000001E0
000003C0
000003C0
00000780
0007FE00
0007FF00
0007FF80
00001F80
00000780
00000780
00000F00
00000F00
03C00F00
07C03E00
03FFFC00
03FFF800
01FFE000
00000000
00000000
00000000
00000000
00000000
00000000
00000000
00000000
ENDCHAR
STARTCHAR cyr-I
ENCODING 200
SWIDTH 675 0
DWIDTH 25 0
BBX 37 37 -1 -8
BITMAP
0000000000
0000000000
0000000000
0000000000
0000000000
0000000000
0003C003C0
0007800780
0007800780
0007800780
000F001F00
000F003F00
000F007F00
001E01FE00
001E03FE00
001E07DE00
003C1F3C00
003C3E3C00
003C7C3C00
0079F07800
007BE07800
007FC07800
00FF00F000
00FE00F000
00FC00F000
01F001E000
01E001E000
01E001E000
03C003C000
0000000000
0000000000
0000000000
0000000000
0000000000
0000000000
0000000000
0000000000
ENDCHAR
STARTCHAR cyr-I-short
ENCODING 201
SWIDTH 675 0
DWIDTH 25 0
BBX 37 37 -1 -8
BITMAP
0000000000
0000000000
0000000000
00001F3E00
00001FF800
00000FF000
0003C003C0
0007800780
0007800780
0007800780
000F001F00
000F003F00
000F007F00
001E01FE00
001E03FE00
001E07DE00
003C1F3C00
003C3E3C00
003C7C3C00
0079F07800
007BE07800
007FC07800
00FF00F000
00FE00F000
00FC00F000
01F001E000
01E001E000
01E001E000
03C003C000
0000000000
0000000000
0000000000
0000000000
0000000000
0000000000
0000000000
0000000000
ENDCHAR
STARTCHAR cyr-Ka
ENCODING 202
SWIDTH 594 0
DWIDTH 22 0
BBX 34 37 -1 -8
BITMAP
0000000000
0000000000
0000000000
0000000000
0000000000
0000000000
0007803E00
000F00F800
000F01F000
000F03E000
001E0F8000
001E1F0000
001E3E0000
003CF80000
003DF00000
003FE00000
007FC00000
007FE00000
007FF00000
00F9F00000
00F0F80000
00F07C0000
01E07C0000
01E03E0000
01E01F0000
03C01F0000
03C00F8000
03C007C000
0780078000
0000000000
0000000000
0000000000
0000000000
0000000000
0000000000
0000000000
0000000000
ENDCHAR
STARTCHAR cyr-El
ENCODING 203
SWIDTH 594 0
DWIDTH 22 0
BBX 34 37 -1 -8
BITMAP
0000000000
0000000000
0000000000
0000000000
0000000000
0000000000
0000FFFE00
0001FFFC00
0001FFFC00
0001E03C00
0003C07800
0003C07800
0003C07800
000780F000
000780F000
000780F000
000F01E000
000F01E000
000F01E000
001E03C000
001E03C000
001E03C000
003C078000
003C078000
003C078000
00780F0000
00780F0000
03F80F0000
07E01E0000
0000000000
0000000000
0000000000
0000000000
0000000000
0000000000
0000000000
0000000000
ENDCHAR
STARTCHAR cyr-Em
ENCODING 204
SWIDTH 729 0
DWIDTH 27 0
BBX 39 37 -1 -8
BITMAP
0000000000
0000000000
0000000000
0000000000
0000000000
0000000000
0003E001F0
0007E007E0
0007E007E0
0007E007E0
000FE01FC0
000FE01FC0
000FE01FC0
001FE07F80
001FE07F80
001FE07F80
003FE1FF00
003DE1EF00
003DE1EF00
007BE7DE00
0079E79E00
0079E79E00
00F3FF3C00
00F1FE3C00
00F1FE3C00
01E3FC7800
01E1F87800
01E1F87800
03C3F0F000
0000000000
0000000000
0000000000
0000000000
0000000000
0000000000
0000000000
0000000000
ENDCHAR
STARTCHAR cyr-En
ENCODING 205
SWIDTH 648 0
DWIDTH 24 0
BBX 36 37 -1 -8
BITMAP
0000000000
0000000000
0000000000
0000000000
0000000000
0000000000
0003C00780
0007800F00
0007800F00
0007800F00
000F001E00
000F001E00
000F001E00
001E003C00
001E003C00
001FFFFC00
003FFFF800
003FFFF800
003C007800
007800F000
007800F000
007800F000
00F001E000
00F001E000
00F001E000
01E003C000
01E003C000
01E003C000
03C0078000
0000000000
0000000000
0000000000
0000000000
0000000000
0000000000
0000000000
0000000000
ENDCHAR
STARTCHAR cyr-O
ENCODING 206
SWIDTH 702 0
DWIDTH 26 0
BBX 38 37 -1 -8
BITMAP
0000000000
0000000000
0000000000
0000000000
0000000000
0000000000
000007F000
00007FFC00
0000FFFE00
0001F83F00
0007C01F00
000F800F80
000F000780
001E000F00
003C000780
003C000780
0078000F00
0078000F00
0078000F00
00F0001E00
00F0001E00
0078003C00
00F0007800
00F800F800
007C01F000
007E0FC000
003FFF8000
001FFF0000
0007F00000
0000000000
0000000000
0000000000
0000000000
0000000000
0000000000
0000000000
0000000000
ENDCHAR
STARTCHAR cyr-Pe
ENCODING 207
SWIDTH 648 0
DWIDTH 24 0
BBX 36 37 -1 -8
BITMAP
0000000000
0000000000
0000000000
0000000000
0000000000
0000000000
0003FFFF80
0007FFFF00
0007FFFF00
0007800F00
000F001E00
000F001E00
000F001E00
001E003C00
001E003C00
001E003C00
003C007800
003C007800
003C007800
007800F000
007800F000
007800F000
00F001E000
00F001E000
00F001E000
01E003C000
01E003C000
01E003C000
03C0078000
0000000000
0000000000
0000000000
0000000000
0000000000
0000000000
0000000000
0000000000
ENDCHAR
STARTCHAR cyr-Er
ENCODING 208
SWIDTH 594 0
DWIDTH 22 0
BBX 34 37 -1 -8
BITMAP
0000000000
0000000000
0000000000
0000000000
0000000000
0000000000
0003FFF000
0007FFF800
0007FFFC00
0007807C00
000F007C00
000F003C00
000F003C00
001E007800
001E007800
001E00F800
003C03E000
003FFFE000
003FFFC000
007FFE0000
0078000000
0078000000
00F0000000
00F0000000
00F0000000
01E0000000
01E0000000
01E0000000
03C0000000
0000000000
0000000000
0000000000
0000000000
0000000000
0000000000
0000000000
0000000000
ENDCHAR
STARTCHAR cyr-Es
ENCODING 209
SWIDTH 648 0
DWIDTH 24 0
BBX 36 37 -1 -8
BITMAP
0000000000
0000000000
0000000000
0000000000
0000000000
0000000000
000007F000
00007FFC00
0000FFFE00
0001F83F00
0007C01F00
000F800F80
000F000780
001E000F00
003C000000
003C000000
0078000000
0078000000
0078000000
00F0000000
00F0000000
0078003C00
00F0007800
00F800F800
007C01F000
007E0FC000
003FFF8000
001FFF0000
0007F00000
0000000000
0000000000
0000000000
0000000000
0000000000
0000000000
0000000000
0000000000
ENDCHAR
STARTCHAR cyr-Te
ENCODING 210
SWIDTH 567 0
DWIDTH 21 0
BBX 33 37 -1 -8
BITMAP
0000000000
0000000000
0000000000
0000000000
0000000000
0000000000
000FFFFF00
001FFFFE00
001FFFFE00
00001E0000
00003C0000
00003C0000
00003C0000
0000780000
0000780000
0000780000
0000F00000
0000F00000
0000F00000
0001E00000
0001E00000
0001E00000
0003C00000
0003C00000
0003C00000
0007800000
0007800000
0007800000
000F000000
0000000000
0000000000
0000000000
0000000000
0000000000
0000000000
0000000000
0000000000
ENDCHAR
STARTCHAR cyr-U
ENCODING 211
SWIDTH 621 0
DWIDTH 23 0
BBX 35 37 -1 -8
BITMAP
0000000000
0000000000
0000000000
0000000000
0000000000
0000000000
000F0003C0
001F000F80
000F801F00
0007C03E00
0007807800
0007C0F800
0003E1F000
0003E7C000
0001E78000
0001FF8000
0001FE0000
0000FC0000
0000F80000
0001E00000
0003E00000
0003C00000
000F800000
000F000000
001E000000
007C000000
00F8000000
03F0000000
07C0000000
0000000000
0000000000
0000000000
0000000000
0000000000
0000000000
0000000000
0000000000
ENDCHAR
STARTCHAR cyr-Ef
ENCODING 212
SWIDTH 756 0
DWIDTH 28 0
BBX 40 37 -1 -8
BITMAP
0000000000
0000000000
0000000000
0000000000
0000000000
0000000000
000007F800
00007FFE00
0000FFFF00
0001FBDF80
0007C78F80
000F8787C0
000F0783C0
001E0F0780
003C0F03C0
003C0F03C0
00781E0780
00781E0780
00781E0780
00783C1E00
00783C1E00
007C3C3E00
007C78F800
003F7BF000
001FFFE000
001FFF8000
0003FC0000
0000F00000
0001E00000
0000000000
0000000000
0000000000
0000000000
0000000000
0000000000
0000000000
0000000000
ENDCHAR
STARTCHAR cyr-Kha
ENCODING 213
SWIDTH 594 0
DWIDTH 22 0
BBX 34 37 -1 -8
BITMAP
0000000000
0000000000
0000000000
0000000000
0000000000
0000000000
0007800F00
000F803E00
0007803C00
0007C07C00
0007C1F000
0003E3E000
0001E3C000
0003EF8000
0001FF0000
0000FE0000
0000F80000
0000F80000
0001FC0000
0007FC0000
0007BC0000
000FBE0000
003E3E0000
007C1F0000
00780F0000
01F01F0000
03E00F8000
07C007C000
0F00078000
0000000000
0000000000
0000000000
0000000000
0000000000
0000000000
0000000000
0000000000
ENDCHAR
STARTCHAR cyr-Tse
ENCODING 214
SWIDTH 675 0
DWIDTH 25 0
BBX 37 37 -1 -8
BITMAP
0000000000
0000000000
0000000000
0000000000
0000000000
0000000000
0003C00780
0007800F00
0007800F00
0007800F00
000F001E00
000F001E00
000F001E00
001E003C00
001E003C00
001E003C00
003C007800
003C007800
003C007800
007800F000
007800F000
007800F000
00F001E000
00F001E000
00F001E000
01E003C000
01FFFFF000
01FFFFF000
03FFFFE000
000001E000
000001E000
000003C000
0000000000
0000000000
0000000000
0000000000
0000000000
ENDCHAR
STARTCHAR cyr-Che
ENCODING 215
SWIDTH 648 0
DWIDTH 24 0
BBX 36 37 -1 -8
BITMAP
0000000000
0000000000
0000000000
0000000000
0000000000
0000000000
0003C00780
0007800F00
0007800F00
0007800F00
000F001E00
000F001E00
000F001E00
001E003C00
001F003C00
001FFFFC00
001FFFF800
000FFFF800
0000007800
000000F000
000000F000
000000F000
000001E000
000001E000
000001E000
000003C000
000003C000
000003C000
0000078000
0000000000
0000000000
0000000000
0000000000
0000000000
0000000000
0000000000
0000000000
ENDCHAR
STARTCHAR cyr-Sha
ENCODING 216
SWIDTH 810 0
DWIDTH 30 0
BBX 42 37 -1 -8
BITMAP
000000000000
000000000000
000000000000
000000000000
000000000000
000000000000
000F00F00F00
001E01E01E00
001E01E01E00
001E01E01E00
003C03C03C00
003C03C03C00
003C03C03C00
007807807800
007807807800
007807807800
00F00F00F000
00F00F00F000
00F00F00F000
01E01E01E000
01E01E01E000
01E01E01E000
03C03C03C000
03C03C03C000
03C03C03C000
078078078000
07FFFFFF8000
07FFFFFF8000
0FFFFFFF0000
000000000000
000000000000
000000000000
000000000000
000000000000
000000000000
000000000000
000000000000
ENDCHAR
STARTCHAR cyr-Shcha
ENCODING 217
SWIDTH 864 0
DWIDTH 32 0
BBX 44 37 -1 -8
BITMAP
000000000000
000000000000
000000000000
000000000000
000000000000
000000000000
000F00F00F00
001E01E01E00
001E01E01E00
001E01E01E00
003C03C03C00
003C03C03C00
003C03C03C00
007807807800
007807807800
007807807800
00F00F00F000
00F00F00F000
00F00F00F000
01E01E01E000
01E01E01E000
01E01E01E000
03C03C03C000
03C03C03C000
03C03C03C000
078078078000
07FFFFFFE000
07FFFFFFE000
0FFFFFFFC000
00000003C000
00000003C000
000000078000
000000000000
000000000000
000000000000
000000000000
000000000000
ENDCHAR
STARTCHAR cyr-Ier
ENCODING 218
SWIDTH 675 0
DWIDTH 25 0
BBX 37 37 -1 -8
BITMAP
0000000000
0000000000
0000000000
0000000000
0000000000
0000000000
000FF00000
001FE00000
001FE00000
0001E00000
0003C00000
0003C00000
0003C00000
0007800000
0007800000
0007800000
000FFFF800
000FFFFC00
000FFFFE00
001E007C00
001E003C00
001E003C00
003C007800
003C007800
003C007800
007801F000
007FFFF000
007FFFE000
00FFFF8000
0000000000
0000000000
0000000000
0000000000
0000000000
0000000000
0000000000
0000000000
ENDCHAR
STARTCHAR cyr-Iery
ENCODING 219
SWIDTH 729 0
DWIDTH 27 0
BBX 39 37 -1 -8
BITMAP
0000000000
0000000000
0000000000
0000000000
0000000000
0000000000
00078000F0
000F0001E0
000F0001E0
000F0001E0
001E0003C0
001E0003C0
001E0003C0
003C000780
003C000780
003C000780
007FFFCF00
007FFFEF00
007FFFFF00
00F003FE00
00F001FE00
00F001FE00
01E003FC00
01E003FC00
01E003FC00
03C00FF800
03FFFFF800
03FFFF7800
07FFFCF000
0000000000
0000000000
0000000000
0000000000
0000000000
0000000000
0000000000
0000000000
ENDCHAR
STARTCHAR cyr-Ierik
ENCODING 220
SWIDTH 648 0
DWIDTH 24 0
BBX 36 37 -1 -8
BITMAP
0000000000
0000000000
0000000000
0000000000
0000000000
0000000000
0003C00000
0007800000
0007800000
0007800000
000F000000
000F000000
000F000000
001E000000
001E000000
001E000000
003FFFE000
003FFFF000
003FFFF800
007801F000
007800F000
007800F000
00F001E000
00F001E000
00F001E000
01E007C000
01FFFFC000
01FFFF8000
03FFFE0000
0000000000
0000000000
0000000000
0000000000
0000000000
0000000000
0000000000
0000000000
ENDCHAR
STARTCHAR cyr-E-rev
ENCODING 221
SWIDTH 675 0
DWIDTH 25 0
BBX 37 37 -1 -8
BITMAP
0000000000
0000000000
0000000000
0000000000
0000000000
0000000000
00001FC000
0001FFF000
0003FFF800
0007E0FC00
001F007C00
001E003E00
0000001E00
0000003C00
0000001E00
0000001E00
00007FFC00
00007FFC00
00007FFC00
0000007800
0000007800
000000F000
000001E000
01E003E000
01F007C000
01F83F0000
00FFFE0000
007FFC0000
001FC00000
0000000000
0000000000
0000000000
0000000000
0000000000
0000000000
0000000000
0000000000
ENDCHAR
STARTCHAR cyr-Yu
ENCODING 222
SWIDTH 810 0
DWIDTH 30 0
BBX 42 37 -1 -8
BITMAP
000000000000
000000000000
000000000000
000000000000
000000000000
000000000000
0007807E0000
000F07FF8000
000F0FFFC000
000F1F87E000
001E7C03E000
001EF801F000
001EF000F000
003DE001E000
003FC000F000
003FC000F000
007F8001E000
007F8001E000
007F8001E000
00FF0003C000
00FF0003C000
00F780078000
01EF000F0000
01EF801F0000
01E7C03E0000
03C7E1F80000
03C3FFF00000
03C1FFE00000
07807E000000
000000000000
000000000000
000000000000
000000000000
000000000000
000000000000
000000000000
000000000000
ENDCHAR
STARTCHAR cyr-Ya
ENCODING 223
SWIDTH 594 0
DWIDTH 22 0
BBX 34 37 -1 -8
BITMAP
0000000000
0000000000
0000000000
0000000000
0000000000
0000000000
0001FFFE00
0007FFFC00
000FFFFC00
000F003C00
001E007800
001E007800
001E007800
003C00F000
003C00F000
003E00F000
007FFFE000
003FFFE000
001FFFE000
0000FBC000
0001F3C000
0003E3C000
000F878000
001F078000
003E078000
00F80F0000
01F00F0000
03E00F0000
07801E0000
0000000000
0000000000
0000000000
0000000000
0000000000
0000000000
0000000000
0000000000
ENDCHAR
STARTCHAR cyr-a
ENCODING 224
SWIDTH 513 0
DWIDTH 19 0
BBX 31 37 -1 -8
BITMAP
00000000
00000000
00000000
00000000
00000000
00000000
00000000
00000000
00000000
00000000
00000000
00000000
00000000
0007FC00
001FFF00
001E0F00
00780F00
00000F00
00001F00
001FFE00
007FFE00
00F81E00
01E03C00
03C03C00
03C03C00
0780F800
03C1FC00
03FFFE00
01FE3C00
00000000
00000000
00000000
00000000
00000000
00000000
00000000
00000000
ENDCHAR
STARTCHAR cyr-be
ENCODING 225
SWIDTH 513 0
DWIDTH 19 0
BBX 31 37 -1 -8
BITMAP
00000000
00000000
00000000
00000000
00000000
00000000
00000070
000007E0
00007FC0
0003FF00
000FC000
001F8000
001E0000
007BF800
007FFE00
007F1F00
00FC1F00
00F80F00
00F00780
01E00F00
01E00F00
01E00F00
03C01E00
03C01E00
01E03C00
03E0F800
01F1F000
00FFE000
007F0000
00000000
00000000
00000000
00000000
00000000
00000000
00000000
00000000
ENDCHAR
STARTCHAR cyr-ve
ENCODING 226
SWIDTH 513 0
DWIDTH 19 0
BBX 31 37 -1 -8
BITMAP
00000000
00000000
00000000
00000000
00000000
00000000
00000000
00000000
00000000
00000000
00000000
00000000
00000000
003FFC00
003FFE00
003C1F00
00781E00
00781E00
00781E00
00FFF800
00FFF800
00F03C00
01E03C00
01E03C00
01E03C00
03C07800
03C0F000
03FFF000
07FFC000
00000000
00000000
00000000
00000000
00000000
00000000
00000000
00000000
ENDCHAR
STARTCHAR cyr-ghe
ENCODING 227
SWIDTH 459 0
DWIDTH 17 0
BBX 29 37 -1 -8
BITMAP
00000000
00000000
00000000
00000000
00000000
00000000
00000000
00000000
00000000
00000000
00000000
00000000
00000000
003FFF00
003FFF00
003C0000
00780000
00780000
00780000
00F00000
00F00000
00F00000
01E00000
01E00000
01E00000
03C00000
03C00000
03C00000
07800000
00000000
00000000
00000000
00000000
00000000
00000000
00000000
00000000
ENDCHAR
STARTCHAR cyr-de
ENCODING 228
SWIDTH 621 0
DWIDTH 23 0
BBX 35 37 -1 -8
BITMAP
0000000000
0000000000
0000000000
0000000000
0000000000
0000000000
0000000000
0000000000
0000000000
0000000000
0000000000
0000000000
0000000000
0007FFE000
0007FFE000
000781E000
000F03C000
000F03C000
000F03C000
001E078000
001E078000
001E078000
003C0F0000
003C0F0000
003C0F0000
00781E0000
00F01E0000
07FFFFC000
0FFFFF8000
0F00078000
0F00078000
1E000F0000
0000000000
0000000000
0000000000
0000000000
0000000000
ENDCHAR
STARTCHAR cyr-ie
ENCODING 229
SWIDTH 486 0
DWIDTH 18 0
BBX 30 37 -1 -8
BITMAP
00000000
00000000
00000000
00000000
00000000
00000000
00000000
00000000
00000000
00000000
00000000
00000000
00000000
0007F800
001FFE00
003F3F00
00781E00
00F81F00
00F00F00
01FFFE00
01FFFE00
01E00000
03C00000
03C00000
03E07C00
03C0F000
03F3F000
01FFE000
00FF0000
00000000
00000000
00000000
00000000
00000000
00000000
00000000
00000000
ENDCHAR
STARTCHAR cyr-zhe
ENCODING 230
SWIDTH 702 0
DWIDTH 26 0
BBX 38 37 -1 -8
BITMAP
0000000000
0000000000
0000000000
0000000000
0000000000
0000000000
0000000000
0000000000
0000000000
0000000000
0000000000
0000000000
0000000000
003C1E0F00
003E1E1F00
001F1E3E00
001F3CF800
000FBDF000
0007FFE000
0007FF8000
0007FF8000
000FFFC000
003EF7C000
007CF3E000
00F8F1F000
03E1E1F000
07C1E0F800
0F81E07C00
1E03C07800
0000000000
0000000000
0000000000
0000000000
0000000000
0000000000
0000000000
0000000000
ENDCHAR
STARTCHAR cyr-z
ENCODING 231
SWIDTH 459 0
DWIDTH 17 0
BBX 29 37 -1 -8
BITMAP
00000000
00000000
00000000
00000000
00000000
00000000
00000000
00000000
00000000
00000000
00000000
00000000
00000000
000FF800
001FFC00
003E3C00
00783C00
00003C00
00003C00
0007F000
0007F000
0000F800
00007800
00007800
03C07800
0780F000
03C1E000
03FFE000
03FF0000
00000000
00000000
00000000
00000000
00000000
00000000
00000000
00000000
ENDCHAR
STARTCHAR cyr-i
ENCODING 232
SWIDTH 513 0
DWIDTH 19 0
BBX 31 37 -1 -8
BITMAP
00000000
00000000
00000000
00000000
00000000
00000000
00000000
00000000
00000000
00000000
00000000
00000000
00000000
003C0780
003C0780
003C0780
00781F00
00783F00
00787F00
00F1FE00
00F3FE00
00F7DE00
01FF3C00
01FE3C00
01FC3C00
03F07800
03E07800
03C07800
0780F000
00000000
00000000
00000000
00000000
00000000
00000000
00000000
00000000
ENDCHAR
STARTCHAR cyr-i-short
ENCODING 233
SWIDTH 513 0
DWIDTH 19 0
BBX 31 37 -1 -8
BITMAP
00000000
00000000
00000000
00000000
00000000
00000000
00000000
00000000
00000000
0001EF00
0003DE00
0001FC00
0000F800
003C0780
003C0780
003C0780
00781F00
00783F00
00787F00
00F1FE00
00F3FE00
00F7DE00
01FF3C00
01FE3C00
01FC3C00
03F07800
03E07800
03C07800
0780F000
00000000
00000000
00000000
00000000
00000000
00000000
00000000
00000000
ENDCHAR
STARTCHAR cyr-ka
ENCODING 234
SWIDTH 459 0
DWIDTH 17 0
BBX 29 37 -1 -8
BITMAP
00000000
00000000
00000000
00000000
00000000
00000000
00000000
00000000
00000000
00000000
00000000
00000000
00000000
003C1E00
003C3C00
003C7800
0079E000
007BC000
007F8000
00FF0000
00FF8000
00FFC000
01E7C000
01E3C000
01E3E000
03C3E000
03C1F000
03C0F000
0781F000
00000000
00000000
00000000
00000000
00000000
00000000
00000000
00000000
ENDCHAR
STARTCHAR cyr-el
ENCODING 235
SWIDTH 513 0
DWIDTH 19 0
BBX 31 37 -1 -8
BITMAP
00000000
00000000
00000000
00000000
00000000
00000000
00000000
00000000
00000000
00000000
00000000
00000000
00000000
000FFF80
000FFF80
000F0780
001E0F00
001E0F00
001E0F00
003C1E00
003C1E00
003C1E00
00783C00
00783C00
00783C00
00F07800
00F07800
07F07800
0FC0F000
00000000
00000000
00000000
00000000
00000000
00000000
00000000
00000000
ENDCHAR
STARTCHAR cyr-em
ENCODING 236
SWIDTH 675 0
DWIDTH 25 0
BBX 37 37 -1 -8
BITMAP
0000000000
0000000000
0000000000
0000000000
0000000000
0000000000
0000000000
0000000000
0000000000
0000000000
0000000000
0000000000
0000000000
003C001E00
003E003E00
003F007E00
007F01FC00
007F83FC00
007FC7FC00
00F7DF7800
00F3FE7800
00F1FC7800
01E1F0F000
01E0E0F000
01E000F000
03C001E000
03C001E000
03C001E000
078003C000
0000000000
0000000000
0000000000
0000000000
0000000000
0000000000
0000000000
0000000000
ENDCHAR
STARTCHAR cyr-en
ENCODING 237
SWIDTH 513 0
DWIDTH 19 0
BBX 31 37 -1 -8
BITMAP
00000000
00000000
00000000
00000000
00000000
00000000
00000000
00000000
00000000
00000000
00000000
00000000
00000000
003C0780
003C0780
003C0780
00780F00
00780F00
00780F00
00F01E00
00FFFE00
00FFFE00
01E03C00
01E03C00
01E03C00
03C07800
03C07800
03C07800
0780F000
00000000
00000000
00000000
00000000
00000000
00000000
00000000
00000000
ENDCHAR
STARTCHAR cyr-o
ENCODING 238
SWIDTH 513 0
DWIDTH 19 0
BBX 31 37 -1 -8
BITMAP
00000000
00000000
00000000
00000000
00000000
00000000
00000000
00000000
00000000
00000000
00000000
00000000
00000000
0007FC00
001FFF00
003F1F80
00780F00
00F80F80
00F00780
01E00F00
01E00F00
01E00F00
03C01E00
03C01E00
03E03E00
03C07800
03F1F800
01FFF000
00FF8000
00000000
00000000
00000000
00000000
00000000
00000000
00000000
00000000
ENDCHAR
STARTCHAR cyr-pe
ENCODING 239
SWIDTH 513 0
DWIDTH 19 0
BBX 31 37 -1 -8
BITMAP
00000000
00000000
00000000
00000000
00000000
00000000
00000000
00000000
00000000
00000000
00000000
00000000
00000000
003FFF80
003FFF80
003C0780
00780F00
00780F00
00780F00
00F01E00
00F01E00
00F01E00
01E03C00
01E03C00
01E03C00
03C07800
03C07800
03C07800
0780F000
00000000
00000000
00000000
00000000
00000000
00000000
00000000
00000000
ENDCHAR
STARTCHAR cyr-er
ENCODING 240
SWIDTH 513 0
DWIDTH 19 0
BBX 31 37 -1 -8
BITMAP
00000000
00000000
00000000
00000000
00000000
00000000
00000000
00000000
00000000
00000000
00000000
00000000
00000000
003DFC00
003FFF00
003F9F80
007C0F00
007C0F80
00780780
00F00F00
00F00F00
00F00F00
01E01E00
01E01E00
01F03E00
03E07800
03F9F800
03FFF000
07BF8000
07800000
07800000
0F000000
0F000000
0F000000
1E000000
00000000
00000000
ENDCHAR
STARTCHAR cyr-es
ENCODING 241
SWIDTH 459 0
DWIDTH 17 0
BBX 29 37 -1 -8
BITMAP
00000000
00000000
00000000
00000000
00000000
00000000
00000000
00000000
00000000
00000000
00000000
00000000
00000000
0007FC00
001FFF00
003F1F80
00780F00
00F80F00
00F00000
01E00000
01E00000
01E00000
03C00000
03C00000
03E03C00
03C07800
03F1F800
01FFF000
00FF8000
00000000
00000000
00000000
00000000
00000000
00000000
00000000
00000000
ENDCHAR
STARTCHAR cyr-te
ENCODING 242
SWIDTH 513 0
DWIDTH 19 0
BBX 31 37 -1 -8
BITMAP
00000000
00000000
00000000
00000000
00000000
00000000
00000000
00000000
00000000
00000000
00000000
00000000
00000000
007FFFC0
007FFFC0
0000F000
0001E000
0001E000
0001E000
0003C000
0003C000
0003C000
00078000
00078000
00078000
000F0000
000F0000
000F0000
001E0000
00000000
00000000
00000000
00000000
00000000
00000000
00000000
00000000
ENDCHAR
STARTCHAR cyr-u
ENCODING 243
SWIDTH 432 0
DWIDTH 16 0
BBX 28 37 -1 -8
BITMAP
00000000
00000000
00000000
00000000
00000000
00000000
00000000
00000000
00000000
00000000
00000000
00000000
00000000
00F00F00
00F00F00
00F00F00
00F03C00
00F03C00
00787800
00F0F000
0079E000
0079E000
007F8000
007F8000
003F0000
007E0000
003C0000
003C0000
00F00000
00F00000
01E00000
03C00000
07800000
0F800000
7E000000
78000000
00000000
ENDCHAR
STARTCHAR cyr-ef
ENCODING 244
SWIDTH 594 0
DWIDTH 22 0
BBX 34 37 -1 -8
BITMAP
0000000000
0000000000
0000000000
0000000000
0000000000
0000000000
0000000000
0000000000
0000000000
0000000000
0000000000
0000000000
00003C0000
0007FF8000
001FFFE000
003F7BF000
0078F1E000
00F8F1F000
00F0F0F000
01E1E1E000
01E1E1E000
01E1E1E000
03C3C3C000
03C3C3C000
03E3C7C000
03C78F0000
03F7BF0000
01FFFE0000
00FFF00000
000F000000
000F000000
001E000000
001E000000
001E000000
003C000000
0000000000
0000000000
ENDCHAR
STARTCHAR cyr-kha
ENCODING 245
SWIDTH 432 0
DWIDTH 16 0
BBX 28 37 -1 -8
BITMAP
00000000
00000000
00000000
00000000
00000000
00000000
00000000
00000000
00000000
00000000
00000000
00000000
00000000
00F00F00
00F81F00
007C3E00
007CF800
003CF000
003FF000
003FC000
001F8000
001F8000
007F8000
00FFC000
00F3C000
03E7C000
07C3E000
0F81F000
1E01E000
00000000
00000000
00000000
00000000
00000000
00000000
00000000
00000000
ENDCHAR
STARTCHAR cyr-tse
ENCODING 246
SWIDTH 540 0
DWIDTH 20 0
BBX 32 37 -1 -8
BITMAP
00000000
00000000
00000000
00000000
00000000
00000000
00000000
00000000
00000000
00000000
00000000
00000000
00000000
003C0780
003C0780
003C0780
00780F00
00780F00
00780F00
00F01E00
00F01E00
00F01E00
01E03C00
01E03C00
01E03C00
03C07800
03C07800
03FFFE00
07FFFC00
00003C00
00003C00
00007800
00000000
00000000
00000000
00000000
00000000
ENDCHAR
STARTCHAR cyr-che
ENCODING 247
SWIDTH 513 0
DWIDTH 19 0
BBX 31 37 -1 -8
BITMAP
00000000
00000000
00000000
00000000
00000000
00000000
00000000
00000000
00000000
00000000
00000000
00000000
00000000
003C0780
003C0780
003C0780
00780F00
00780F00
00780F00
00F01E00
00FFFE00
007FFE00
00003C00
00003C00
00003C00
00007800
00007800
00007800
0000F000
00000000
00000000
00000000
00000000
00000000
00000000
00000000
00000000
ENDCHAR
STARTCHAR cyr-sha
ENCODING 248
SWIDTH 702 0
DWIDTH 26 0
BBX 38 37 -1 -8
BITMAP
0000000000
0000000000
0000000000
0000000000
0000000000
0000000000
0000000000
0000000000
0000000000
0000000000
0000000000
0000000000
0000000000
003C1E0F00
003C1E0F00
003C1E0F00
00783C1E00
00783C1E00
00783C1E00
00F0783C00
00F0783C00
00F0783C00
01E0F07800
01E0F07800
01E0F07800
03C1E0F000
03C1E0F000
03FFFFF000
07FFFFE000
0000000000
0000000000
0000000000
0000000000
0000000000
0000000000
0000000000
0000000000
ENDCHAR
STARTCHAR cyr-shcha
ENCODING 249
SWIDTH 729 0
DWIDTH 27 0
BBX 39 37 -1 -8
BITMAP
0000000000
0000000000
0000000000
0000000000
0000000000
0000000000
0000000000
0000000000
0000000000
0000000000
0000000000
0000000000
0000000000
003C1E0F00
003C1E0F00
003C1E0F00
00783C1E00
00783C1E00
00783C1E00
00F0783C00
00F0783C00
00F0783C00
01E0F07800
01E0F07800
01E0F07800
03C1E0F000
03C1E0F000
03FFFFFC00
07FFFFF800
0000007800
0000007800
000000F000
0000000000
0000000000
0000000000
0000000000
0000000000
ENDCHAR
STARTCHAR cyr-ier
ENCODING 250
SWIDTH 567 0
DWIDTH 21 0
BBX 33 37 -1 -8
BITMAP
0000000000
0000000000
0000000000
0000000000
0000000000
0000000000
0000000000
0000000000
0000000000
0000000000
0000000000
0000000000
0000000000
007F000000
007F000000
000F000000
001E000000
001E000000
001E000000
003C000000
003FFF0000
003FFF8000
00780F8000
0078078000
0078078000
00F00F0000
00F01F0000
00FFFE0000
01FFF80000
0000000000
0000000000
0000000000
0000000000
0000000000
0000000000
0000000000
0000000000
ENDCHAR
STARTCHAR cyr-iery
ENCODING 251
SWIDTH 648 0
DWIDTH 24 0
BBX 36 37 -1 -8
BITMAP
0000000000
0000000000
0000000000
0000000000
0000000000
0000000000
0000000000
0000000000
0000000000
0000000000
0000000000
0000000000
0000000000
003C003C00
003C003C00
003C003C00
0078007800
0078007800
0078007800
00F000F000
00FFFCF000
00FFFEF000
01E03FE000
01E01FE000
01E01FE000
03C03FC000
03C07FC000
03FFFBC000
07FFE78000
0000000000
0000000000
0000000000
0000000000
0000000000
0000000000
0000000000
0000000000
ENDCHAR
STARTCHAR cyr-ierik
ENCODING 252
SWIDTH 513 0
DWIDTH 19 0
BBX 31 37 -1 -8
BITMAP
00000000
00000000
00000000
00000000
00000000
00000000
00000000
00000000
00000000
00000000
00000000
00000000
00000000
003C0000
003C0000
003C0000
00780000
00780000
00780000
00F00000
00FFFC00
00FFFE00
01E03E00
01E01E00
01E01E00
03C03C00
03C07C00
03FFF800
07FFE000
00000000
00000000
00000000
00000000
00000000
00000000
00000000
00000000
ENDCHAR
STARTCHAR cyr-e-rev
ENCODING 253
SWIDTH 486 0
DWIDTH 18 0
BBX 30 37 -1 -8
BITMAP
00000000
00000000
00000000
00000000
00000000
00000000
00000000
00000000
00000000
00000000
00000000
00000000
00000000
000FF800
003FFE00
007E3F00
00F01E00
00001F00
00000F00
00001E00
0007FE00
0007FE00
00003C00
00003C00
00007C00
0780F000
07E3F000
03FFE000
01FF0000
00000000
00000000
00000000
00000000
00000000
00000000
00000000
00000000
ENDCHAR
STARTCHAR cyr-yu
ENCODING 254
SWIDTH 648 0
DWIDTH 24 0
BBX 36 37 -1 -8
BITMAP
0000000000
0000000000
0000000000
0000000000
0000000000
0000000000
0000000000
0000000000
0000000000
0000000000
0000000000
0000000000
0000000000
003C3FC000
003CFFF000
003DF9F800
007BC0F000
007FC0F800
007F807800
00FF00F000
00FF00F000
00FF00F000
01FE01E000
01FE01E000
01FF03E000
03DE078000
03DF9F8000
03CFFF0000
0787F80000
0000000000
0000000000
0000000000
0000000000
0000000000
0000000000
0000000000
0000000000
ENDCHAR
STARTCHAR cyr-ya
ENCODING 255
SWIDTH 486 0
DWIDTH 18 0
BBX 30 37 -1 -8
BITMAP
00000000
00000000
00000000
00000000
00000000
00000000
00000000
00000000
00000000
00000000
00000000
00000000
00000000
001FFF00
003FFF00
007C0F00
00F01E00
00F01E00
00F01E00
01F03C00
00FFFC00
007FFC00
001F7800
003E7800
007C7800
01F0F000
03E0F000
07C0F000
0F01E000
00000000
00000000
00000000
00000000
00000000
00000000
00000000
00000000
ENDCHAR
ENDFONT
